<?xml version="1.0" encoding="UTF-8"?>
<svg version="1.1" xmlns="http://www.w3.org/2000/svg" width="512" height="512">
<path d="M0 0 C0.99237671 0.25864334 1.98475342 0.51728668 3.00720215 0.7837677 C6.26102764 1.63556304 9.50888849 2.50809353 12.75708008 3.38110352 C15.05951117 3.98855708 17.36227815 4.59473877 19.6653595 5.19972229 C25.72733593 6.79592502 31.78442719 8.40995466 37.84069824 10.02764893 C43.8873192 11.63918005 49.93864318 13.23283937 55.98950195 14.82836914 C66.35633633 17.56464328 76.71716827 20.32272438 87.07388115 23.09705162 C92.85627835 24.64518646 98.64145102 26.18163754 104.43192959 27.69926739 C107.55058108 28.51802822 110.66694041 29.34525001 113.78273964 30.17479134 C115.16213441 30.53998999 116.54252829 30.90144049 117.92400169 31.2586956 C132.48904733 35.02918696 132.48904733 35.02918696 137.65161133 41.44750977 C141.15656966 47.93817335 140.12515363 52.87551801 138.35864258 59.67797852 C138.13328323 60.5829155 137.90792389 61.48785248 137.67573547 62.42021179 C136.91026602 65.4745402 136.12586515 68.52359824 135.33911133 71.57250977 C134.7626851 73.8298106 134.18635328 76.08713554 133.61010742 78.34448242 C131.97422348 84.72499532 130.31812477 91.10009098 128.65533066 97.47363663 C127.25113081 102.85926681 125.84980463 108.24564596 124.44775391 113.63183594 C123.85509587 115.90834269 123.2624299 118.18484738 122.66975403 120.46134949 C122.41352674 121.44554965 122.15729944 122.42974981 121.89330769 123.44377422 C121.61898049 124.49749832 121.61898049 124.49749832 121.33911133 125.57250977 C122.1839464 125.56697901 122.1839464 125.56697901 123.04584885 125.56133652 C136.75001454 125.47300098 150.45413036 125.40706316 164.15851974 125.36526108 C170.78588198 125.34436751 177.41303906 125.31601695 184.0402832 125.27075195 C190.43340324 125.22735827 196.82632568 125.203386 203.2195816 125.19300079 C205.66129925 125.18559785 208.10300584 125.17114204 210.54463959 125.14958954 C213.95911715 125.12064259 217.37277342 125.11655024 220.78735352 125.1184082 C221.80155365 125.1040271 222.81575378 125.089646 223.86068726 125.0748291 C230.61770684 125.11473492 230.61770684 125.11473492 233.69482422 127.06735229 C236.05196773 130.6585838 238.17119324 134.32283944 240.19946289 138.10913086 C240.90259613 139.40368698 240.90259613 139.40368698 241.61993408 140.72439575 C245.98089919 148.79300254 250.22766632 156.92269282 254.44290543 165.06821251 C257.26054083 170.51066994 260.10918366 175.92990564 263.05102539 181.30639648 C277.92158803 208.54384801 286.78392673 231.20390094 284.66235352 262.60620117 C284.61257607 263.41541645 284.56279861 264.22463173 284.51151276 265.05836868 C283.96255173 270.5994308 282.24999657 274.54519718 278.33911133 278.57250977 C273.15566259 281.66264267 268.24248658 282.55300116 262.33911133 281.57250977 C257.46936873 280.24940989 255.03743473 277.70427528 252.41333008 273.45141602 C251.04814301 270.87113819 249.80991441 268.24806936 248.60839844 265.58813477 C248.24911758 264.79460098 247.88983673 264.0010672 247.51966858 263.18348694 C247.13008469 262.32186447 246.74050079 261.460242 246.33911133 260.57250977 C245.47602838 258.67317573 244.61257101 256.7740118 243.7487793 254.875 C242.85959477 252.91871225 241.97043487 250.96241331 241.08129883 249.00610352 C240.62295654 247.99769409 240.16461426 246.98928467 239.69238281 245.95031738 C238.57460391 243.49105806 237.45684716 241.03178867 236.33911133 238.57250977 C236.33691149 239.96345195 236.33691149 239.96345195 236.33466721 241.38249397 C236.29807824 263.94176833 236.23863655 286.50089415 236.15520859 309.06004524 C236.11539298 319.96947604 236.08301328 330.87883445 236.06811523 341.78833008 C236.05511181 351.29664094 236.0281806 360.80479267 235.98449826 370.31301391 C235.96185404 375.34794542 235.94620242 380.38268044 235.94722748 385.41766739 C235.94797234 390.15702817 235.93009157 394.89595411 235.8979435 399.63520241 C235.88942676 401.37422389 235.88770659 403.11329404 235.89330864 404.85232735 C235.89994357 407.2285675 235.88204185 409.60342206 235.85809326 411.97952271 C235.86973389 413.00969959 235.86973389 413.00969959 235.88160968 414.06068814 C235.79336988 419.01272234 234.51363185 421.81137997 231.33911133 425.57250977 C226.91661434 429.061924 224.0422601 430.07283227 218.43310547 430.07587433 C217.759384 430.08168809 217.08566254 430.08750185 216.39152527 430.09349179 C214.13540683 430.10808248 211.88037796 430.09421208 209.62426758 430.08044434 C207.9899388 430.08505365 206.35561417 430.09140677 204.72129822 430.09935331 C200.231302 430.11606569 195.74164546 430.10779163 191.25164795 430.09540844 C186.40903409 430.08636808 181.56647915 430.10032264 176.72387695 430.11132812 C167.23762849 430.12912876 157.75150652 430.12526648 148.26525307 430.11367756 C140.55662624 430.10464959 132.84803489 430.10341648 125.1394043 430.10777283 C123.49465764 430.10869223 123.49465764 430.10869223 121.81668377 430.1096302 C119.58927535 430.11090908 117.36186694 430.11220593 115.13445854 430.11352056 C94.24058671 430.12493089 73.34678505 430.11180555 52.45292473 430.0903191 C34.51911845 430.07244772 16.58541574 430.0755517 -1.34838867 430.09399414 C-22.16671962 430.11539285 -42.98498906 430.12383221 -63.80332947 430.11154509 C-66.02261352 430.11027087 -68.24189757 430.10901339 -70.46118164 430.10777283 C-71.55315511 430.10715573 -72.64512857 430.10653862 -73.77019215 430.10590282 C-81.47091458 430.10244692 -89.17159805 430.10828343 -96.87231445 430.11769104 C-106.25499169 430.12890129 -115.63753505 430.12589147 -125.02019691 430.10456806 C-129.80878698 430.09404456 -134.5971537 430.08995798 -139.38574219 430.10316467 C-143.76777483 430.11506746 -148.14937671 430.10856106 -152.53137016 430.08725446 C-154.11809297 430.08277942 -155.70485202 430.0850749 -157.29155159 430.09475762 C-159.44651458 430.10690124 -161.59999735 430.09446954 -163.75488281 430.07587433 C-164.95230606 430.07522492 -166.14972931 430.07457551 -167.38343811 430.07390642 C-172.59349789 429.27685197 -175.66215125 426.75580061 -179.0034523 422.79707146 C-180.91970265 419.06898417 -181.22613457 416.07381019 -181.17987061 411.97952271 C-181.19112248 410.86314842 -181.19112248 410.86314842 -181.20260167 409.72422111 C-181.22283117 407.24123508 -181.21478588 404.75916636 -181.20678711 402.27612305 C-181.21552473 400.49200032 -181.22601117 398.70788543 -181.2381134 396.92378235 C-181.26597089 392.08745265 -181.26937814 387.25137869 -181.26839352 382.41498041 C-181.27152282 377.35804678 -181.29714142 372.30122829 -181.32037354 367.24435425 C-181.36093566 357.67161963 -181.38127477 348.09895314 -181.39434743 338.52614582 C-181.41021673 327.62651568 -181.44863209 316.72700148 -181.48894072 305.82743859 C-181.57134259 283.4091679 -181.62543293 260.99090039 -181.66088867 238.57250977 C-182.12462891 239.60657959 -182.58836914 240.64064941 -183.06616211 241.70605469 C-184.79584543 245.55783834 -186.53505068 249.40525995 -188.27709961 253.25146484 C-189.02838546 254.91370906 -189.77711692 256.57711032 -190.52319336 258.24169922 C-191.59877628 260.64024913 -192.6836109 263.03442709 -193.77026367 265.42797852 C-194.26426666 266.53764229 -194.26426666 266.53764229 -194.76824951 267.66972351 C-197.13130288 272.84099416 -199.52234503 277.13023615 -204.34838867 280.38500977 C-210.15308814 282.46593976 -215.29844721 282.47322859 -220.97338867 279.94750977 C-224.84420276 278.04861984 -226.55565548 275.28220607 -228.66088867 271.57250977 C-229.43242634 268.64819584 -229.69550434 265.75552757 -229.90625 262.7434082 C-229.9681848 261.87238716 -230.03011959 261.00136612 -230.0939312 260.1039505 C-231.93258884 227.96272813 -221.26554386 204.83765819 -206.12121582 177.10144043 C-203.12090555 171.55221959 -200.23984425 165.94158917 -197.3425293 160.33813477 C-193.11731764 152.21725427 -188.8629645 144.1132587 -184.49951172 136.06567383 C-184.05211136 135.22876007 -183.604711 134.39184631 -183.14375305 133.52957153 C-182.72733551 132.76871246 -182.31091797 132.00785339 -181.88188171 131.22393799 C-181.52330424 130.56284153 -181.16472677 129.90174507 -180.79528332 129.22061539 C-179.66088867 127.57250977 -179.66088867 127.57250977 -176.66088867 125.57250977 C-174.52698231 125.32641411 -174.52698231 125.32641411 -172.01020813 125.33200073 C-170.57782303 125.32787674 -170.57782303 125.32787674 -169.11650085 125.32366943 C-168.07065323 125.33085999 -167.0248056 125.33805054 -165.94726562 125.34545898 C-164.84467407 125.34516693 -163.74208252 125.34487488 -162.6060791 125.34457397 C-158.95369659 125.34596974 -155.30151689 125.36154274 -151.64916992 125.37719727 C-149.11997082 125.38092651 -146.59077028 125.3837739 -144.06156921 125.38577271 C-138.07987145 125.39263444 -132.09826105 125.40840487 -126.11659831 125.42847168 C-119.30651141 125.45082199 -112.49642104 125.46182192 -105.6863066 125.47186255 C-91.6777935 125.49277089 -77.66934508 125.5279523 -63.66088867 125.57250977 C-63.43594727 124.590224 -63.21100586 123.60793823 -62.97924805 122.59588623 C-60.25991039 110.82527266 -57.24636417 99.14237948 -54.16088867 87.46313477 C-53.63798345 85.47836381 -53.11519945 83.4935609 -52.5925293 81.50872803 C-51.50482483 77.38034312 -50.41547582 73.25239667 -49.32495117 69.12475586 C-47.93649537 63.86879393 -46.55251497 58.61166548 -45.1697998 53.35419083 C-44.09413641 49.26645712 -43.0159364 45.17939567 -41.93701172 41.09252167 C-41.42593854 39.15530374 -40.91566395 37.21787493 -40.40625 35.28022003 C-38.85165156 29.37009844 -37.27567181 23.46648442 -35.66088867 17.57250977 C-35.47407532 16.88555527 -35.28726196 16.19860077 -35.0947876 15.49082947 C-34.59193896 13.66350883 -34.06855249 11.84187484 -33.54370117 10.02075195 C-33.26413574 9.04338074 -32.98457031 8.06600952 -32.6965332 7.059021 C-27.0998488 -6.378233 -11.21472243 -3.06742162 0 0 Z " fill="#472B3C" transform="translate(228.660888671875,82.427490234375)"/>
<path d="M0 0 C125.4 0 250.8 0 380 0 C379.38577429 4.91380567 378.78939707 9.36662509 377.6953125 14.125 C377.44322021 15.23528564 377.19112793 16.34557129 376.93139648 17.48950195 C376.66528564 18.64796631 376.3991748 19.80643066 376.125 21 C374.16848877 29.64245997 372.34362669 38.26714369 370.77734375 46.98828125 C369.65595483 52.98901949 368.21274396 58.92244442 366.83569336 64.8684082 C365.60278072 70.23053334 364.47641469 75.5853367 363.5 81 C362.17701665 88.33654402 360.52445501 95.57692598 358.8425293 102.83862305 C357.27333869 109.6638578 355.90132181 116.49992579 354.67578125 123.39453125 C354.1519873 126.1891082 353.57913449 128.95206073 352.95776367 131.7253418 C352.77823654 132.52812057 352.59870941 133.33089935 352.41374207 134.15800476 C352.20893974 135.0697924 352.20893974 135.0697924 352 136 C351.43232304 136.00059709 350.86464609 136.00119418 350.2797668 136.00180936 C316.65219171 136.03768494 283.02472052 136.09429554 249.39723061 136.17792095 C245.36166322 136.18793869 241.32609542 136.19778277 237.29052734 136.20751953 C236.48710121 136.2094609 235.68367508 136.21140228 234.8559027 136.21340248 C221.83825808 136.24444354 208.8206311 136.261409 195.80295643 136.27319422 C182.45066017 136.28559489 169.09845665 136.3130717 155.74621892 136.35461307 C147.50377178 136.37977963 139.26147839 136.39311499 131.01899227 136.39142957 C125.3706994 136.39139987 119.72256343 136.40598292 114.07433167 136.43216428 C110.8130396 136.44684653 107.5521354 136.45282052 104.29080772 136.44580269 C100.75795682 136.43921102 97.22605373 136.45696847 93.69329834 136.48101807 C92.65828461 136.47325765 91.62327089 136.46549723 90.55689311 136.45750165 C85.12040503 136.44996942 85.12040503 136.44996942 80.39416885 138.84493637 C78.84900011 141.03668627 78.84900011 141.03668627 78 144 C72.72 144 67.44 144 62 144 C61.01 142.02 60.02 140.04 59 138 C55.6978772 136.8992924 53.05916721 136.79372928 49.58203125 136.68359375 C48.32841797 136.64169922 47.07480469 136.59980469 45.78320312 136.55664062 C44.47287109 136.51732422 43.16253906 136.47800781 41.8125 136.4375 C40.47720022 136.39429008 39.14191348 136.350675 37.80664062 136.30664062 C34.53786703 136.20043498 31.26901667 136.09839003 28 136 C27.8141333 135.12077881 27.6282666 134.24155762 27.43676758 133.33569336 C26.56267709 129.20282112 25.687839 125.07010797 24.8125 120.9375 C24.65382446 120.18825256 24.49514893 119.43900513 24.33166504 118.66705322 C22.33226906 109.23017703 20.31316862 99.79818045 18.25 90.375 C16.69361344 83.26299816 15.21575619 76.14384971 13.8125 69 C12.77627366 63.8188683 11.63066741 58.66116419 10.5 53.5 C8.8629269 46.02724277 7.29186246 38.55085712 5.82421875 31.04296875 C5.16099566 27.72338548 4.43799578 24.41858042 3.70703125 21.11328125 C3.47757812 20.07429688 3.248125 19.0353125 3.01171875 17.96484375 C2.55318767 15.89761143 2.09107176 13.83117029 1.625 11.765625 C1.41488281 10.81816406 1.20476562 9.87070313 0.98828125 8.89453125 C0.79790283 8.04737549 0.60752441 7.20021973 0.41137695 6.32739258 C0 4 0 4 0 0 Z " fill="#FEC939" transform="translate(66,224)"/>
<path d="M0 0 C0.33 0 0.66 0 1 0 C1.20568604 1.04937744 1.41137207 2.09875488 1.62329102 3.17993164 C6.78016729 29.45575886 6.78016729 29.45575886 12.37203979 55.64157104 C12.80374544 57.5855775 13.22824232 59.53118034 13.65258789 61.47680664 C14.05078735 63.24012329 14.05078735 63.24012329 14.45703125 65.0390625 C14.68366455 66.05178223 14.91029785 67.06450195 15.14379883 68.10791016 C16.64590375 73.18174389 17.84935477 76.16057841 22.21606445 79.34619141 C25.99175878 81.25700719 29.30244715 81.48819399 33.54296875 81.4609375 C34.23385086 81.46002106 34.92473297 81.45910461 35.6365509 81.4581604 C37.08451282 81.45216182 38.53246453 81.43652949 39.98022461 81.41162109 C42.19236013 81.37491937 44.40282484 81.37060368 46.61523438 81.37109375 C54.74164169 81.8212122 54.74164169 81.8212122 62 79 C62.66 77.35 63.32 75.7 64 74 C69.28 74 74.56 74 80 74 C80.99 75.98 81.98 77.96 83 80 C85.37703641 81.1885182 86.81886255 81.12844309 89.47167397 81.13422108 C90.41820607 81.13867892 91.36473817 81.14313676 92.33995306 81.14772969 C93.91053601 81.14745315 93.91053601 81.14745315 95.5128479 81.14717102 C96.61963847 81.15084771 97.72642903 81.1545244 98.8667587 81.1583125 C102.60079295 81.1693856 106.33479941 81.17319933 110.06884766 81.17700195 C112.7359331 81.1832639 115.40301553 81.18989738 118.07009888 81.19691467 C126.09309992 81.21669151 134.11610226 81.22674774 142.13912159 81.23564246 C145.91666596 81.24002417 149.69420891 81.24539136 153.47175217 81.25063133 C166.02881644 81.26764635 178.58587984 81.28213997 191.14295387 81.28938007 C194.40275702 81.29129 197.66256016 81.29321032 200.92236328 81.29516602 C201.73258101 81.29564976 202.54279874 81.2961335 203.37756853 81.2966319 C216.49912925 81.30493008 229.62059873 81.33026217 242.74211963 81.36274669 C256.21197123 81.39582175 269.68177648 81.41382932 283.15166891 81.41702431 C290.7151698 81.41918922 298.27853773 81.42793468 305.84199905 81.45348549 C312.28444316 81.4751988 318.72672204 81.48323995 325.16919859 81.47351871 C328.45533393 81.46897545 331.74105741 81.47304553 335.02716064 81.49028015 C338.59347867 81.50793793 342.15893201 81.50092183 345.72525024 81.48774719 C346.75892121 81.49871644 347.79259218 81.50968568 348.8575865 81.52098733 C355.3297323 81.4632675 359.46603096 80.41710769 365 77 C366.66434272 75.08363676 366.66434272 75.08363676 367.36352539 72.85375977 C367.65752228 72.06389679 367.95151917 71.27403381 368.25442505 70.4602356 C369.46852333 66.45397464 370.39871235 62.45057692 371.18359375 58.33984375 C371.36443512 57.43957962 371.54527649 56.53931549 371.7315979 55.61177063 C372.30991788 52.72217673 372.87378815 49.82997538 373.4375 46.9375 C373.83216459 44.95323394 374.2279202 42.96918457 374.62475586 40.98535156 C375.40225654 37.09442673 376.17518636 33.20264245 376.94433594 29.31005859 C378.27088792 22.61361107 379.6578285 15.93049739 381.0625 9.25 C381.44924797 7.40104778 381.83597068 5.55209027 382.22265625 3.703125 C382.47917969 2.48109375 382.73570312 1.2590625 383 0 C383.33 0 383.66 0 384 0 C384 66.66 384 133.32 384 202 C257.28 202 130.56 202 0 202 C0 135.34 0 68.68 0 0 Z " fill="#0DCDBA" transform="translate(64,294)"/>
<path d="M0 0 C5.87366428 6.00921038 9.23643533 12.82187395 11.91796875 20.6953125 C16.30856031 33.56243388 23.06477849 41.44152011 34.625 48.5 C43.1354577 53.78519434 47.84823892 60.54471677 51 70 C52.45323235 89.43996058 44.32341687 101.80254479 32.125 116.0625 C30.09983961 118.38990389 28.05345752 120.69755827 26 123 C25.51708496 123.5460791 25.03416992 124.0921582 24.53662109 124.65478516 C3.58483778 148.29434415 3.58483778 148.29434415 -10.75 149.25 C-16.37218926 149.15715651 -20.43477723 147.25217822 -24.8125 143.75 C-29.8688465 137.39345011 -29.12746137 130.70292929 -28.625 123 C-28.52064961 120.94148103 -28.41778557 118.88288618 -28.31640625 116.82421875 C-28.17260801 114.10260621 -28.02499029 111.38219974 -27.84716797 108.66259766 C-26.95250587 94.59560427 -31.8585774 85.82306586 -40.81616211 75.45727539 C-47.66822358 67.8398551 -53.99015909 63.53980966 -64.1484375 61.81640625 C-65.31890625 61.61080078 -66.489375 61.40519531 -67.6953125 61.19335938 C-70.14019877 60.77419894 -72.58551096 60.35751497 -75.03125 59.94335938 C-90.89306392 57.14575373 -90.89306392 57.14575373 -95.375 51.5 C-96.09816406 50.61828125 -96.09816406 50.61828125 -96.8359375 49.71875 C-99.67949389 45.52021036 -99.53957051 40.86406949 -99 36 C-95.82319147 24.73091567 -85.0500673 17.81830588 -75.4140625 12.39453125 C-73.9454368 11.59134492 -72.47387853 10.79350603 -71 10 C-70.16178711 9.54802246 -69.32357422 9.09604492 -68.45996094 8.63037109 C-20.52048597 -16.90772435 -20.52048597 -16.90772435 0 0 Z " fill="#482C3B" transform="translate(416,20)"/>
<path d="M0 0 C4.43377253 0.68208628 8.74190453 1.62108143 13.09375 2.70703125 C13.76233032 2.87369797 14.43091064 3.04036469 15.11975098 3.21208191 C16.53194626 3.56479195 17.94384788 3.91867964 19.35546875 4.27368164 C21.46529199 4.80377953 23.57630085 5.3289281 25.6875 5.85351562 C33.40955799 7.78231718 41.07159924 9.85283272 48.71728516 12.0690918 C53.7615514 13.49953856 58.84513631 14.75390153 63.9375 16 C71.75112696 17.93296253 79.54500004 19.91117894 87.31640625 22.0078125 C91.62325122 23.16787467 95.93608465 24.30407238 100.25 25.4375 C101.0430957 25.64624756 101.83619141 25.85499512 102.65332031 26.07006836 C106.7949372 27.1597697 110.93767422 28.24498396 115.08203125 29.32421875 C138.40623101 35.40623101 138.40623101 35.40623101 141 38 C140.57891259 40.64552745 140.04908257 43.10478867 139.375 45.6875 C139.08967407 46.83436279 139.08967407 46.83436279 138.79858398 48.00439453 C138.21285638 50.34005287 137.60964545 52.6704809 137 55 C136.67386719 56.25167969 136.34773437 57.50335938 136.01171875 58.79296875 C135.19815936 61.86306736 134.37048004 64.92897776 133.53857422 67.99414062 C132.96402499 70.1339849 132.40419496 72.27727787 131.84765625 74.421875 C129.57772076 83.16346349 127.2223431 91.87576828 124.75 100.5625 C124.36255615 101.92882568 124.36255615 101.92882568 123.96728516 103.32275391 C123.7254248 104.16628418 123.48356445 105.00981445 123.234375 105.87890625 C123.02006836 106.6272876 122.80576172 107.37566895 122.58496094 108.14672852 C122 110 122 110 121 112 C117.31087832 113.13028409 114.65470839 113.33260116 111 112 C107.74752044 108.43671511 105.60550958 104.10694784 103.32421875 99.890625 C100.47136704 94.75172939 96.51062753 91.67664834 91 89.55078125 C82.85374423 87.30737878 76.95469959 89.47222949 69.70703125 93.3984375 C67.5633444 94.66670822 65.4863213 95.96166918 63.4375 97.375 C61 99 61 99 58 99 C57.77860352 98.39526855 57.55720703 97.79053711 57.32910156 97.16748047 C56.31080355 94.40027415 55.28052203 91.63767609 54.25 88.875 C53.90195312 87.92367187 53.55390625 86.97234375 53.1953125 85.9921875 C50.08707742 77.70356063 47.02454221 71.65401582 39.203125 66.91015625 C36.4424172 65.76965108 34.23333243 65.69909326 31.25 65.6875 C30.26515625 65.67074219 29.2803125 65.65398437 28.265625 65.63671875 C20.69881733 66.47848085 15.81355822 69.45613074 10.5 74.75 C9.36918234 75.83535765 8.23767491 76.91999711 7.10546875 78.00390625 C6.56970215 78.52355957 6.03393555 79.04321289 5.48193359 79.57861328 C3.64287103 81.34253787 1.74239402 83.02379826 -0.1875 84.6875 C-3.15726789 87.25713074 -6.08511071 89.86819555 -9 92.5 C-10.66653937 94.00014143 -12.33320158 95.50014641 -14 97 C-14.73863281 97.66773438 -15.47726563 98.33546875 -16.23828125 99.0234375 C-19.66195706 102.07960009 -22.91886536 104.83189722 -27 107 C-26.36061117 100.52238224 -24.94635646 94.46438895 -23.25 88.1875 C-22.84575806 86.66745361 -22.84575806 86.66745361 -22.43334961 85.11669922 C-21.88371967 83.05011657 -21.3322213 80.9840299 -20.77880859 78.91845703 C-20.08865018 76.33220197 -19.40955342 73.74355199 -18.73828125 71.15234375 C-16.7637753 63.54024345 -14.71333823 55.95616124 -12.5625 48.3918457 C-8.00457128 32.3513449 -3.97247055 16.19330241 0 0 Z " fill="#0DCDBA" transform="translate(211,96)"/>
<path d="M0 0 C0.78069351 -0.0049649 1.56138702 -0.00992981 2.36573792 -0.01504517 C4.95574823 -0.02968293 7.54569725 -0.03647235 10.13574219 -0.04199219 C11.93454999 -0.04774343 13.73335777 -0.05350117 15.53216553 -0.05926514 C19.30839321 -0.06978048 23.08459957 -0.07561928 26.86083984 -0.07910156 C31.69407947 -0.0845797 36.52703643 -0.10859086 41.36018753 -0.13707352 C45.07829605 -0.15572251 48.79633689 -0.16090676 52.51448822 -0.16243744 C54.29584036 -0.16546067 56.07719141 -0.17347809 57.85849762 -0.18662262 C60.3551004 -0.20372641 62.85101824 -0.20179218 65.34765625 -0.1953125 C66.08035233 -0.20452728 66.8130484 -0.21374207 67.56794739 -0.22323608 C72.94518922 -0.17963949 77.09538052 0.97934182 81.07714844 4.69628906 C84.15510663 8.72131131 85.55329463 10.76703152 85.59375 15.79101562 C85.60335754 16.75251526 85.61296509 17.71401489 85.62286377 18.70465088 C85.62711365 19.74732117 85.63136353 20.78999146 85.63574219 21.86425781 C85.64144226 22.93480408 85.64714233 24.00535034 85.65301514 25.1083374 C85.66247482 27.37804168 85.66900295 29.64775974 85.67285156 31.91748047 C85.68253871 35.38305827 85.71354594 38.84803851 85.74511719 42.31347656 C85.75164899 44.51790012 85.75689877 46.72232793 85.76074219 48.92675781 C85.77308899 49.96133118 85.78543579 50.99590454 85.79815674 52.06182861 C85.77896893 58.28988118 85.31923867 62.99637332 80.93261719 67.80566406 C75.77960209 71.81803779 72.09484182 72.3149984 65.75170898 72.33813477 C64.58044968 72.34799156 64.58044968 72.34799156 63.38552856 72.35804749 C60.80096336 72.37776114 58.2164562 72.38943845 55.63183594 72.39941406 C54.3067398 72.40552735 54.3067398 72.40552735 52.95487404 72.41176414 C48.2795701 72.43261614 43.60429545 72.44692191 38.92895508 72.45629883 C34.10350696 72.46736451 29.27851982 72.5017686 24.45323467 72.54147053 C20.73941701 72.56763082 17.02570933 72.57599011 13.31180763 72.57958031 C11.53323056 72.58444739 9.75465845 72.59606489 7.97617149 72.6146183 C5.48431343 72.63899892 2.99365012 72.63804712 0.50170898 72.63110352 C-0.22941605 72.64391357 -0.96054108 72.65672363 -1.71382141 72.66992188 C-6.80245685 72.61837312 -9.63603664 71.3339245 -13.56738281 68.16113281 C-17.33638261 63.98467357 -18.67939721 61.00083744 -18.74438477 55.41772461 C-18.75722 54.45630051 -18.77005524 53.4948764 -18.78327942 52.50431824 C-18.79066635 51.46680923 -18.79805328 50.42930023 -18.80566406 49.36035156 C-18.81373581 48.29122025 -18.82180756 47.22208893 -18.8301239 46.12055969 C-18.84395872 43.85683817 -18.85468357 41.59309584 -18.86254883 39.3293457 C-18.87976405 35.87248107 -18.92365697 32.41657221 -18.96777344 28.95996094 C-18.97790034 26.76009817 -18.98641645 24.56022729 -18.99316406 22.36035156 C-19.01067215 21.32891525 -19.02818024 20.29747894 -19.04621887 19.23478699 C-19.02803271 13.19951589 -18.58570373 9.75684353 -14.56738281 5.16113281 C-9.5358637 0.72860407 -6.55843551 0.0098967 0 0 Z " fill="#462B3C" transform="translate(346.5673828125,407.8388671875)"/>
<path d="M0 0 C3.96 0 7.92 0 12 0 C11.28235744 7.14141862 9.7304221 14.01109164 8.125 21 C6.16848877 29.64245997 4.34362669 38.26714369 2.77734375 46.98828125 C1.65595483 52.98901949 0.21274396 58.92244442 -1.16430664 64.8684082 C-2.39721928 70.23053334 -3.52358531 75.5853367 -4.5 81 C-5.82298335 88.33654402 -7.47554499 95.57692598 -9.1574707 102.83862305 C-10.72666131 109.6638578 -12.09867819 116.49992579 -13.32421875 123.39453125 C-13.8480127 126.1891082 -14.42086551 128.95206073 -15.04223633 131.7253418 C-15.22176346 132.52812057 -15.40129059 133.33089935 -15.58625793 134.15800476 C-15.79106026 135.0697924 -15.79106026 135.0697924 -16 136 C-16.56767696 136.00059709 -17.13535391 136.00119418 -17.7202332 136.00180936 C-51.34780829 136.03768494 -84.97527948 136.09429554 -118.60276939 136.17792095 C-122.63833678 136.18793869 -126.67390458 136.19778277 -130.70947266 136.20751953 C-131.51289879 136.2094609 -132.31632492 136.21140228 -133.1440973 136.21340248 C-146.16174192 136.24444354 -159.1793689 136.261409 -172.19704357 136.27319422 C-185.54933983 136.28559489 -198.90154335 136.3130717 -212.25378108 136.35461307 C-220.49622822 136.37977963 -228.73852161 136.39311499 -236.98100773 136.39142957 C-242.6293006 136.39139987 -248.27743657 136.40598292 -253.92566833 136.43216428 C-257.1869604 136.44684653 -260.4478646 136.45282052 -263.70919228 136.44580269 C-267.24204318 136.43921102 -270.77394627 136.45696847 -274.30670166 136.48101807 C-275.34171539 136.47325765 -276.37672911 136.46549723 -277.44310689 136.45750165 C-282.87959497 136.44996942 -282.87959497 136.44996942 -287.60583115 138.84493637 C-289.15099989 141.03668627 -289.15099989 141.03668627 -290 144 C-295.28 144 -300.56 144 -306 144 C-306.99 142.02 -307.98 140.04 -309 138 C-312.3021228 136.8992924 -314.94083279 136.79372928 -318.41796875 136.68359375 C-319.67158203 136.64169922 -320.92519531 136.59980469 -322.21679688 136.55664062 C-323.52712891 136.51732422 -324.83746094 136.47800781 -326.1875 136.4375 C-327.52279978 136.39429008 -328.85808652 136.350675 -330.19335938 136.30664062 C-333.46211234 136.20043566 -336.73104223 136.09970215 -340 136 C-340.99 130.72 -341.98 125.44 -343 120 C-341.39149076 119.99945523 -339.78298151 119.99891047 -338.12572956 119.99834919 C-299.96119063 119.9843115 -261.79675249 119.94458842 -223.63227605 119.87314438 C-218.93706132 119.8643774 -214.24184623 119.85582764 -209.54663086 119.84741211 C-208.61187999 119.84573305 -207.67712912 119.84405398 -206.71405246 119.84232404 C-191.56958648 119.81563877 -176.42515835 119.80655787 -161.28067128 119.80395857 C-145.74631363 119.80090142 -130.21206559 119.7789823 -114.67775744 119.73947543 C-105.08867701 119.71568532 -95.49981525 119.70668843 -85.91070934 119.71648689 C-79.33917623 119.72179393 -72.76783944 119.70881484 -66.19636223 119.6813371 C-62.40227655 119.66601637 -58.60863008 119.65887241 -54.81453133 119.67340279 C-50.70394946 119.6889349 -46.59448652 119.6660187 -42.48396301 119.63923645 C-41.2806604 119.64990971 -40.07735779 119.66058297 -38.83759147 119.67157966 C-32.23309352 119.78577692 -32.23309352 119.78577692 -26.77490139 116.58088017 C-25.21905045 114.31852077 -24.27212774 112.85095142 -23.74902344 110.19580078 C-23.59791107 109.4796611 -23.44679871 108.76352142 -23.29110718 108.02568054 C-23.14863556 107.25665909 -23.00616394 106.48763763 -22.859375 105.6953125 C-22.6912027 104.87638016 -22.5230304 104.05744781 -22.34976196 103.21369934 C-21.98866384 101.44547045 -21.63609405 99.67548276 -21.29119873 97.90402222 C-20.55343975 94.11567521 -19.77487925 90.33607718 -18.99801636 86.55558777 C-18.59620041 84.59946787 -18.19642029 82.64292874 -17.7986145 80.68598938 C-15.83461392 71.06070936 -13.62351881 61.4995469 -11.375 51.9375 C-7.33547777 34.67517118 -3.60604503 17.35771513 0 0 Z " fill="#FE9600" transform="translate(434,224)"/>
<path d="M0 0 C6.34968231 2.80324783 8.65600064 11.54848571 11.21484375 17.46484375 C11.97522949 19.21317505 11.97522949 19.21317505 12.75097656 20.99682617 C13.57403856 22.88958675 14.39592295 24.78281625 15.21432495 26.67759705 C17.08787271 31.00595479 19.01379789 35.30754878 20.97087097 39.59875488 C22.37323898 42.68351317 23.75350327 45.77790067 25.13070679 48.8739624 C25.80366846 50.37475318 26.48530051 51.87169073 27.17617798 53.36431885 C31.59892691 62.94237876 34.55986777 71.07895015 32.90234375 81.83984375 C30.52580057 87.74887535 26.72307455 92.04887619 20.90234375 94.77734375 C13.82450812 97.52983538 7.71164295 97.22635597 0.71484375 94.33984375 C-4.84082435 91.32867164 -8.1421405 85.706391 -10.09765625 79.83984375 C-11.07382122 72.23970219 -9.71784937 66.02134352 -5.09765625 59.83984375 C-1.4437864 56.62750984 1.92716804 53.83984375 6.90234375 53.83984375 C4.42734375 47.89984375 4.42734375 47.89984375 1.90234375 41.83984375 C-3.1435545 45.10248477 -7.90126236 48.67404077 -12.66015625 52.33984375 C-13.40201172 52.90832031 -14.14386719 53.47679687 -14.90820312 54.0625 C-18.66978165 56.9498381 -22.40886101 59.85958938 -26.09765625 62.83984375 C-24.05254258 69.57668879 -21.38863501 75.92273602 -18.52319336 82.34179688 C-15.18675579 89.81830651 -13.60654227 96.11453546 -16.28515625 104.08984375 C-17.8548183 107.81408908 -20.00996136 110.20400665 -23.09765625 112.83984375 C-23.71640625 113.39671875 -24.33515625 113.95359375 -24.97265625 114.52734375 C-30.31020499 117.82406503 -35.52975953 118.23085778 -41.6015625 117.4453125 C-48.71359029 115.72017274 -53.38874429 111.20365465 -57.171875 105.109375 C-59.44553813 99.5355426 -59.21641806 91.93684532 -57.1875 86.3203125 C-54.58566497 81.94487931 -51.30279014 78.67187269 -47.09765625 75.83984375 C-45.10832725 75.44782176 -43.10777357 75.10543644 -41.09765625 74.83984375 C-41.38487549 74.21005615 -41.67209473 73.58026855 -41.96801758 72.93139648 C-43.28287529 70.04708138 -44.5965247 67.16221749 -45.91015625 64.27734375 C-46.36197266 63.28669922 -46.81378906 62.29605469 -47.27929688 61.27539062 C-48.55792622 58.4661393 -49.82988243 55.65400863 -51.09765625 52.83984375 C-51.41976074 52.12981201 -51.74186523 51.41978027 -52.07373047 50.68823242 C-53.94461768 46.47286522 -54.77248428 43.47928645 -54.09765625 38.83984375 C-50.46262409 32.86800521 -44.51664649 29.25618993 -38.94287109 25.19824219 C-36.21665602 23.19127465 -33.52955276 21.13453048 -30.84277344 19.07519531 C-29.38648765 17.95903533 -27.92749025 16.84640449 -26.46582031 15.73730469 C-23.0642391 13.15063795 -19.70584492 10.53886483 -16.4375 7.78515625 C-6.7105795 -0.32200477 -6.7105795 -0.32200477 0 0 Z " fill="#472B3B" transform="translate(122.09765625,79.16015625)"/>
<path d="M0 0 C3.90789133 0.4891921 7.81799476 0.95652278 11.72875977 1.42211914 C14.23087329 1.73006342 16.73283268 2.0392633 19.23461914 2.34985352 C20.97534447 2.55630241 20.97534447 2.55630241 22.75123596 2.766922 C35.71289679 4.43226626 35.71289679 4.43226626 40.56665039 8.70922852 C43.86944184 13.1623025 45.0062708 15.39373341 45.13696289 20.92407227 C45.19303711 22.46321289 45.19303711 22.46321289 45.25024414 24.03344727 C44.37908412 30.45925147 39.89958248 34.31827237 35.26196289 38.48657227 C34.73530029 38.96094727 34.2086377 39.43532227 33.66601562 39.92407227 C29.44006429 43.70015815 25.08495797 47.30590357 20.67211914 50.86157227 C17.51824123 53.42274609 14.4187247 56.04153873 11.32446289 58.67407227 C-14.48947819 80.58732476 -14.48947819 80.58732476 -23.76147461 80.45141602 C-28.95108832 79.85519826 -32.79393693 77.88121477 -36.07373047 73.82861328 C-39.14311516 69.10041077 -40.23485059 63.64018336 -41.62866211 58.24047852 C-41.93374695 57.08917953 -42.23883179 55.93788055 -42.55316162 54.75169373 C-43.1938154 52.32320123 -43.82889352 49.89323185 -44.45874023 47.46191406 C-45.42225606 43.74921508 -46.40689418 40.04259308 -47.39428711 36.33618164 C-48.01534749 33.97128009 -48.63518053 31.6060558 -49.25366211 29.24047852 C-49.5473468 28.13611954 -49.84103149 27.03176056 -50.14361572 25.89393616 C-52.23407344 17.75347333 -53.54281681 11.59606097 -49.39038086 3.97094727 C-40.20225368 -9.61920868 -13.39597048 -1.68479796 0 0 Z " fill="#472B3C" transform="translate(195.175537109375,2.825927734375)"/>
<path d="M0 0 C0.33 0 0.66 0 1 0 C1.93028159 13.63586086 -0.89817066 26.34088074 -3.6875 39.625 C-4.12821443 41.78750375 -4.56767448 43.95026353 -5.00585938 46.11328125 C-6.08234214 51.39301827 -7.19855658 56.66311408 -8.33929443 61.92932129 C-8.78081857 63.98133787 -9.21474826 66.03500281 -9.64117432 68.09020996 C-10.24824878 71.00992386 -10.88051295 73.92307178 -11.51953125 76.8359375 C-11.69554367 77.70618561 -11.87155609 78.57643372 -12.05290222 79.47305298 C-12.3260601 80.6782106 -12.3260601 80.6782106 -12.60473633 81.90771484 C-12.82895012 82.95371353 -12.82895012 82.95371353 -13.05769348 84.02084351 C-14.44681802 86.93846616 -16.34735379 88.19263054 -19 90 C-21.72594744 90.50139666 -21.72594744 90.50139666 -24.74218082 90.50336456 C-26.47246921 90.51901105 -26.47246921 90.51901105 -28.23771292 90.53497362 C-30.13195687 90.52158929 -30.13195687 90.52158929 -32.06446838 90.50793457 C-33.42299901 90.5125439 -34.78152465 90.51889704 -36.14003986 90.52684355 C-39.87227412 90.54355576 -43.60409973 90.53528219 -47.33633554 90.52289867 C-51.36161161 90.51385824 -55.38681681 90.52781283 -59.41207886 90.53881836 C-67.29691242 90.55661849 -75.18159381 90.55275712 -83.06643338 90.5411678 C-89.4731391 90.53214025 -95.87980212 90.53090653 -102.28651237 90.53526306 C-103.65340464 90.53618246 -103.65340464 90.53618246 -105.04791088 90.53712043 C-106.8990133 90.53839931 -108.7501157 90.53969616 -110.6012181 90.5410108 C-127.96459153 90.5524208 -145.32788054 90.53929597 -162.69124012 90.51780933 C-177.59718087 90.49993496 -192.50299704 90.50304443 -207.40893555 90.52148438 C-224.71102972 90.54287849 -242.01304989 90.5513253 -259.31515545 90.53903532 C-261.15920475 90.5377611 -263.00325406 90.53650361 -264.84730339 90.53526306 C-265.75465788 90.53464596 -266.66201237 90.53402886 -267.59686245 90.53339306 C-273.9980755 90.529936 -280.39924168 90.53577609 -286.80044746 90.54518127 C-294.59816545 90.55638631 -302.39572232 90.55339269 -310.19342179 90.5320583 C-314.17369103 90.52152809 -318.15369142 90.51745937 -322.13395882 90.53065491 C-325.77517283 90.54254408 -329.4158679 90.53607456 -333.0570346 90.5147447 C-335.00336702 90.50813542 -336.94973526 90.52124576 -338.89603049 90.53497362 C-340.62240725 90.51932714 -340.62240725 90.51932714 -342.38366032 90.50336456 C-343.87645231 90.50239045 -343.87645231 90.50239045 -345.39940172 90.50139666 C-348.76551809 89.85240773 -349.97234322 88.72801396 -352 86 C-352 84.68 -352 83.36 -352 82 C-350.80455566 81.970271 -350.80455566 81.970271 -349.58496094 81.93994141 C-345.97297528 81.84466752 -342.36156601 81.73499693 -338.75 81.625 C-337.49574219 81.5940625 -336.24148438 81.563125 -334.94921875 81.53125 C-333.74394531 81.49257813 -332.53867187 81.45390625 -331.296875 81.4140625 C-330.18666992 81.3826416 -329.07646484 81.3512207 -327.93261719 81.31884766 C-325.01063218 81.00115598 -323.35082297 80.74687494 -321 79 C-320.34 77.35 -319.68 75.7 -319 74 C-313.72 74 -308.44 74 -303 74 C-302.01 75.98 -301.02 77.96 -300 80 C-297.62296359 81.1885182 -296.18113745 81.12844309 -293.52832603 81.13422108 C-292.58179393 81.13867892 -291.63526183 81.14313676 -290.66004694 81.14772969 C-289.08946399 81.14745315 -289.08946399 81.14745315 -287.4871521 81.14717102 C-286.38036153 81.15084771 -285.27357097 81.1545244 -284.1332413 81.1583125 C-280.39920705 81.1693856 -276.66520059 81.17319933 -272.93115234 81.17700195 C-270.2640669 81.1832639 -267.59698447 81.18989738 -264.92990112 81.19691467 C-256.90690008 81.21669151 -248.88389774 81.22674774 -240.86087841 81.23564246 C-237.08333404 81.24002417 -233.30579109 81.24539136 -229.52824783 81.25063133 C-216.97118356 81.26764635 -204.41412016 81.28213997 -191.85704613 81.28938007 C-188.59724298 81.29129 -185.33743984 81.29321032 -182.07763672 81.29516602 C-181.26741899 81.29564976 -180.45720126 81.2961335 -179.62243147 81.2966319 C-166.50087075 81.30493008 -153.37940127 81.33026217 -140.25788037 81.36274669 C-126.78802877 81.39582175 -113.31822352 81.41382932 -99.84833109 81.41702431 C-92.2848302 81.41918922 -84.72146227 81.42793468 -77.15800095 81.45348549 C-70.71555684 81.4751988 -64.27327796 81.48323995 -57.83080141 81.47351871 C-54.54466607 81.46897545 -51.25894259 81.47304553 -47.97283936 81.49028015 C-44.40652133 81.50793793 -40.84106799 81.50092183 -37.27474976 81.48774719 C-36.24107879 81.49871644 -35.20740782 81.50968568 -34.1424135 81.52098733 C-27.6702677 81.4632675 -23.53396904 80.41710769 -18 77 C-16.33565728 75.08363676 -16.33565728 75.08363676 -15.63647461 72.85375977 C-15.34247772 72.06389679 -15.04848083 71.27403381 -14.74557495 70.4602356 C-13.53147667 66.45397464 -12.60128765 62.45057692 -11.81640625 58.33984375 C-11.63556488 57.43957962 -11.45472351 56.53931549 -11.2684021 55.61177063 C-10.69008212 52.72217673 -10.12621185 49.82997538 -9.5625 46.9375 C-9.16783541 44.95323394 -8.7720798 42.96918457 -8.37524414 40.98535156 C-7.59774346 37.09442673 -6.82481364 33.20264245 -6.05566406 29.31005859 C-4.72911208 22.61361107 -3.3421715 15.93049739 -1.9375 9.25 C-1.55075203 7.40104778 -1.16402932 5.55209027 -0.77734375 3.703125 C-0.52082031 2.48109375 -0.26429688 1.2590625 0 0 Z " fill="#02AE9D" transform="translate(447,294)"/>
<path d="M0 0 C23.76 0 47.52 0 72 0 C72 13.2 72 26.4 72 40 C48.24 40 24.48 40 0 40 C0 26.8 0 13.6 0 0 Z " fill="#8544BE" transform="translate(344,424)"/>
<path d="M0 0 C6.17787154 4.31014294 8.12202838 8.68831754 10.46875 15.60546875 C16.10140579 30.71615111 23.1813434 40.91316839 36.6875 49.875 C47.55625466 57.48126398 47.55625466 57.48126398 49.6875 63.875 C50.89902776 72.05281237 47.24666283 78.25231247 42.6875 84.875 C38.95984089 89.77539081 34.83290702 94.32851317 30.6875 98.875 C29.81867188 99.84179688 28.94984375 100.80859375 28.0546875 101.8046875 C26.58474691 103.43957192 25.10920599 105.06946144 23.625 106.69140625 C22.26733769 108.22151357 20.96629848 109.80286994 19.7109375 111.41796875 C17.72895873 113.82465726 15.75106892 115.69125763 13.3125 117.625 C12.58289063 118.21796875 11.85328125 118.8109375 11.1015625 119.421875 C8.28603048 121.11666127 5.93091485 121.51981336 2.6875 121.875 C2.6604183 119.14576612 2.64062153 116.41680363 2.625 113.6875 C2.61662109 112.91857422 2.60824219 112.14964844 2.59960938 111.35742188 C2.5823998 107.3475905 2.90029663 103.81101683 3.6875 99.875 C3.81010719 96.93642935 3.78204184 94.00295494 3.75 91.0625 C3.74548828 90.27423828 3.74097656 89.48597656 3.73632812 88.67382812 C3.72461312 86.74085239 3.70667998 84.80791607 3.6875 82.875 C4.35845703 83.48988281 4.35845703 83.48988281 5.04296875 84.1171875 C5.64753906 84.65601562 6.25210938 85.19484375 6.875 85.75 C7.46667969 86.28367187 8.05835938 86.81734375 8.66796875 87.3671875 C14.1520224 91.46166469 20.07869388 91.68810061 26.6875 90.875 C29.32673432 89.79680481 31.31076007 88.49320591 33.6875 86.875 C34.3475 86.875 35.0075 86.875 35.6875 86.875 C39.08895085 80.59539843 41.95146114 74.12171052 40.6875 66.875 C38.59602306 60.71301419 35.49105188 57.22223697 29.953125 53.8046875 C24.33019078 51.49734553 16.71620228 51.61535624 11.1328125 53.9375 C5.7857269 57.6501934 2.63168692 62.60598393 1.23046875 68.94140625 C0.98262163 70.57719721 0.82489548 72.22625419 0.6875 73.875 C-1.7638155 70.95227768 -3.93688247 67.95099293 -6 64.75 C-9.13181193 59.97618948 -12.69609073 55.63132535 -16.359375 51.2578125 C-18.3125 48.875 -18.3125 48.875 -20.3125 45.875 C-19.44367188 45.77703125 -18.57484375 45.6790625 -17.6796875 45.578125 C-8.76434215 44.54632368 -8.76434215 44.54632368 -1.3125 39.875 C3.58396532 33.39049187 4.64802157 27.86479304 3.6875 19.875 C1.5075923 14.19972305 -1.97122357 10.77786763 -7.3125 7.875 C-12.8957173 6.01392757 -18.44204563 6.34503793 -24.0625 7.9375 C-28.55585792 10.61623261 -31.95978454 14.16956909 -34.3125 18.875 C-34.46227039 21.12155587 -34.53400174 23.37363768 -34.5625 25.625 C-34.60117187 27.44257812 -34.60117187 27.44257812 -34.640625 29.296875 C-34.28729348 33.1498711 -33.24644605 35.55675572 -31.3125 38.875 C-42.97916667 36.54166667 -54.64583333 34.20833333 -66.3125 31.875 C-66.6425 30.885 -66.9725 29.895 -67.3125 28.875 C-59.83487163 18.17228764 -45.84495303 13.01633509 -34.4375 7.5 C-33.38014648 6.98808105 -32.32279297 6.47616211 -31.23339844 5.94873047 C-10.90459754 -3.70344822 -10.90459754 -3.70344822 0 0 Z " fill="#F9C53A" transform="translate(401.3125,30.125)"/>
<path d="M0 0 C13.19917706 0.67554843 26.26910804 2.42189953 39.375 4.0625 C41.67183417 4.34733467 43.96870889 4.63184252 46.265625 4.91601562 C51.84422314 5.60690991 57.42230718 6.3018366 63 7 C63 7.99 63 8.98 63 10 C61.10650618 11.83629766 59.23522762 13.47721918 57.1875 15.125 C56.59582031 15.61291016 56.00414062 16.10082031 55.39453125 16.60351562 C53.60324139 18.07767798 51.80270102 19.53982735 50 21 C48.16655492 22.49986341 46.33321268 23.99985255 44.5 25.5 C43.613125 26.221875 42.72625 26.94375 41.8125 27.6875 C38.68198202 30.26148145 35.58907158 32.87660391 32.5 35.5 C31.40896716 36.42200872 30.31782208 37.34388465 29.2265625 38.265625 C27.08483752 40.0755698 24.95707848 41.90037537 22.8359375 43.734375 C21.37027344 44.97960938 21.37027344 44.97960938 19.875 46.25 C18.57175781 47.37148437 18.57175781 47.37148437 17.2421875 48.515625 C16.13230469 49.25039062 16.13230469 49.25039062 15 50 C14.01 49.67 13.02 49.34 12 49 C11.20385742 47.14013672 11.20385742 47.14013672 10.60546875 44.6796875 C10.3748877 43.76219727 10.14430664 42.84470703 9.90673828 41.89941406 C9.66938965 40.90135742 9.43204102 39.90330078 9.1875 38.875 C8.66848558 36.78372583 8.14893808 34.6925839 7.62890625 32.6015625 C7.36352051 31.5177832 7.09813477 30.43400391 6.82470703 29.31738281 C6.00577435 26.02322732 5.14952523 22.74136654 4.27734375 19.4609375 C4.00059814 18.41953613 3.72385254 17.37813477 3.4387207 16.30517578 C2.90342861 14.29538124 2.36684345 12.28593057 1.82885742 10.27685547 C1.46884644 8.91004639 1.46884644 8.91004639 1.1015625 7.515625 C0.88838379 6.71415039 0.67520508 5.91267578 0.45556641 5.08691406 C0 3 0 3 0 0 Z " fill="#8444BD" transform="translate(160,16)"/>
<path d="M0 0 C1.75211782 0.25677589 3.50167936 0.53102953 5.25 0.8125 C6.22453125 0.96332031 7.1990625 1.11414063 8.203125 1.26953125 C11.12322338 2.03218264 12.74205815 3.03774101 15 5 C12.68746469 15.04968803 10.24007102 25.04045664 7.53857422 34.99414062 C6.96402499 37.1339849 6.40419496 39.27727787 5.84765625 41.421875 C3.57772076 50.16346349 1.2223431 58.87576828 -1.25 67.5625 C-1.63744385 68.92882568 -1.63744385 68.92882568 -2.03271484 70.32275391 C-2.2745752 71.16628418 -2.51643555 72.00981445 -2.765625 72.87890625 C-3.08708496 74.00147827 -3.08708496 74.00147827 -3.41503906 75.14672852 C-4 77 -4 77 -5 79 C-8.6654183 80.03305109 -11.37714855 80.27776918 -15 79 C-18.94889319 74.7157564 -21.44576477 69.18250627 -24 64 C-23.22785156 63.2471875 -22.45570313 62.494375 -21.66015625 61.71875 C-12.4958104 52.35254631 -10.34368735 39.83983032 -7.50415039 27.46386719 C-5.38060847 18.20927723 -3.08200166 8.98689864 0 0 Z " fill="#02AD9D" transform="translate(337,129)"/>
<path d="M0 0 C3.12785483 2.03310564 3.80934494 3.40261415 4.9375 6.9375 C5.01433549 10.70243881 4.25523274 12.01834492 2 15 C-0.6015625 16.30078125 -0.6015625 16.30078125 -3.625 17.3125 C-15.18810228 21.81778593 -21.43322284 30.20981238 -27.0390625 41 C-28.29487215 43.27137745 -29.39105608 44.76261508 -31.84375 45.71875 C-35.57866128 46.44343428 -37.50421964 46.25316444 -40.9375 44.5 C-43.61978809 41.24874171 -43.78567577 39.18588349 -44 35 C-39.44804696 22.06035727 -27.97788921 8.90476091 -15.6875 2.625 C-10.42729911 0.17095091 -5.78850982 -0.74319023 0 0 Z " fill="#472B3B" transform="translate(485,149)"/>
<path d="M0 0 C2.5 2.0625 2.5 2.0625 4 5 C4.22157751 7.8417315 4.06593258 10.34627201 3 13 C0.3253105 15.47349604 -2.33138604 16.59594561 -5.75 17.75 C-16.66289114 22.01259772 -22.78298396 31.12569443 -28.3125 41.0625 C-30 44 -30 44 -32 45 C-39.0521327 45.56872038 -39.0521327 45.56872038 -42.5 43.5 C-44.66548084 39.89086527 -44.86405909 37.01652469 -44 33 C-38.72022948 19.57370856 -28.17556046 7.83479668 -15.171875 1.65625 C-9.8982451 -0.47625608 -5.5880321 -1.93870501 0 0 Z " fill="#472A3B" transform="translate(308,11)"/>
<path d="M0 0 C7.29366928 9.29032238 12.25801061 20.71388992 17.6875 31.1875 C18.02777096 31.84257286 18.36804192 32.49764572 18.71862411 33.17256927 C29.2711147 53.57033203 37.10089418 71.62518622 32 95 C29.38089259 91.78223947 27.66939866 88.4535148 25.91796875 84.69921875 C25.62687225 84.07918472 25.33577576 83.4591507 25.03585815 82.82032776 C23.40788514 79.34408102 21.80454072 75.85659499 20.20288086 72.36816406 C19.5234081 70.88991265 18.84380052 69.41172321 18.1640625 67.93359375 C17.82232498 67.18880768 17.48058746 66.44402161 17.12849426 65.67666626 C15.14325842 61.37813814 13.07712906 57.13682208 10.90644836 52.92901611 C1.50614541 34.6847927 -2.2329696 20.88930795 0 0 Z " fill="#FC9601" transform="translate(464,251)"/>
<path d="M0 0 C0.33 0 0.66 0 1 0 C4.56251013 24.33772944 -3.77643784 41.16810722 -14.61767578 62.29736328 C-17.85945424 68.64185875 -20.82310952 75.11011466 -23.78018188 81.59082031 C-25.10293404 84.48221137 -26.44653429 87.36384462 -27.7890625 90.24609375 C-28.21912598 91.17091553 -28.64918945 92.0957373 -29.09228516 93.04858398 C-29.39183105 93.69255127 -29.69137695 94.33651855 -30 95 C-30.33 95 -30.66 95 -31 95 C-33.46525614 69.89736114 -28.76750125 52.85859716 -16.62957764 30.9932251 C-14.70904753 27.49804088 -12.86852452 23.96111866 -11.01953125 20.42773438 C-7.42044722 13.57698245 -3.74031705 6.77488736 0 0 Z " fill="#FC9501" transform="translate(47,251)"/>
<path d="M0 0 C3.42532487 2.79252577 4.78640595 5.37423142 6.140625 9.53515625 C6.48867187 10.59154297 6.83671875 11.64792969 7.1953125 12.73632812 C7.54335937 13.83396484 7.89140625 14.93160156 8.25 16.0625 C8.61351562 17.16400391 8.97703125 18.26550781 9.3515625 19.40039062 C12 27.54981203 12 27.54981203 12 31 C-5.16 31 -22.32 31 -40 31 C-34.39831528 24.27797834 -34.39831528 24.27797834 -31.3125 21.6875 C-28.16533642 19.00263164 -25.0677286 16.27556397 -22 13.5 C-18.86544464 10.67455334 -15.72650936 7.85495597 -12.5625 5.0625 C-11.94503906 4.51722656 -11.32757813 3.97195312 -10.69140625 3.41015625 C-6.96684136 0.30491854 -4.8265323 -0.59100396 0 0 Z " fill="#8444BC" transform="translate(244,177)"/>
<path d="M0 0 C4.36685542 4.13702092 6.59107837 6.50103446 7.5625 12.4375 C7.12988219 24.75572287 -4.18619056 35.43018249 -12 44 C-12.86882812 44.96679688 -13.73765625 45.93359375 -14.6328125 46.9296875 C-16.10275309 48.56457192 -17.57829401 50.19446144 -19.0625 51.81640625 C-20.42016231 53.34651357 -21.72120152 54.92786994 -22.9765625 56.54296875 C-24.95854127 58.94965726 -26.93643108 60.81625763 -29.375 62.75 C-30.10460937 63.34296875 -30.83421875 63.9359375 -31.5859375 64.546875 C-34.40146952 66.24166127 -36.75658515 66.64481336 -40 67 C-40.0270817 64.27076612 -40.04687847 61.54180363 -40.0625 58.8125 C-40.07087891 58.04357422 -40.07925781 57.27464844 -40.08789062 56.48242188 C-40.1051002 52.4725905 -39.78720337 48.93601683 -39 45 C-38.87739281 42.06142935 -38.90545816 39.12795494 -38.9375 36.1875 C-38.94201172 35.39923828 -38.94652344 34.61097656 -38.95117188 33.79882812 C-38.96288688 31.86585239 -38.98082002 29.93291607 -39 28 C-38.55269531 28.40992187 -38.10539062 28.81984375 -37.64453125 29.2421875 C-37.03996094 29.78101562 -36.43539063 30.31984375 -35.8125 30.875 C-35.22082031 31.40867187 -34.62914062 31.94234375 -34.01953125 32.4921875 C-28.5354776 36.58666469 -22.60880612 36.81310061 -16 36 C-13.36076568 34.92180481 -11.37673993 33.61820591 -9 32 C-8.34 32 -7.68 32 -7 32 C-2.82301599 24.2886449 -0.75616154 17.65381119 -2.6875 8.875 C-3.09487924 5.12711098 -1.89464481 3.18300327 0 0 Z " fill="#F99401" transform="translate(444,85)"/>
<path d="M0 0 C11.87458364 5.54942854 24.85501673 16.68700605 30 29 C30.41428745 32.86668289 30.60232024 35.08447324 28.4375 38.375 C25.1250277 40.58331487 22.98721529 41.06874509 19 41 C14.35453551 37.99411121 11.96154603 34.6811534 9 30 C4.44249576 23.69992061 -1.4770499 19.93356 -7.9453125 15.73828125 C-11.92318873 13.15362254 -11.92318873 13.15362254 -13 11 C-13.5801105 4.73480663 -13.5801105 4.73480663 -11.125 1.625 C-7.27288387 -1.32073586 -4.57042203 -1.34324788 0 0 Z " fill="#472A3B" transform="translate(102,18)"/>
<path d="M0 0 C2.64 0 5.28 0 8 0 C8 13.2 8 26.4 8 40 C-15.76 40 -39.52 40 -64 40 C-64 37.36 -64 34.72 -64 32 C-62.92338104 31.98786972 -62.92338104 31.98786972 -61.82501221 31.97549438 C-55.05668489 31.89751209 -48.28853483 31.81021036 -41.52046585 31.71247292 C-38.04102811 31.66255436 -34.56162007 31.61622418 -31.08203125 31.578125 C-27.08053553 31.53415337 -23.07940584 31.47452029 -19.078125 31.4140625 C-17.83009094 31.40251129 -16.58205688 31.39096008 -15.29620361 31.37905884 C-13.55485138 31.3492543 -13.55485138 31.3492543 -11.77832031 31.31884766 C-10.24609833 31.29886215 -10.24609833 31.29886215 -8.68292236 31.2784729 C-5.92922303 30.99265373 -4.27679093 30.56247075 -2 29 C-0.94163339 25.82490018 -0.79756211 23.35717617 -0.68359375 20.01953125 C-0.62075195 18.27446289 -0.62075195 18.27446289 -0.55664062 16.49414062 C-0.51732422 15.27919922 -0.47800781 14.06425781 -0.4375 12.8125 C-0.37272461 10.97268555 -0.37272461 10.97268555 -0.30664062 9.09570312 C-0.2004691 6.06391619 -0.09842048 3.03204685 0 0 Z " fill="#61308F" transform="translate(408,424)"/>
<path d="M0 0 C6.6 0.66 13.2 1.32 20 2 C20 2.99 20 3.98 20 5 C18.10650618 6.83629766 16.23522762 8.47721918 14.1875 10.125 C13.59582031 10.61291016 13.00414062 11.10082031 12.39453125 11.60351562 C10.60324139 13.07767798 8.80270102 14.53982735 7 16 C5.16655492 17.49986341 3.33321268 18.99985255 1.5 20.5 C0.613125 21.221875 -0.27375 21.94375 -1.1875 22.6875 C-4.31801798 25.26148145 -7.41092842 27.87660391 -10.5 30.5 C-11.59103284 31.42200872 -12.68217792 32.34388465 -13.7734375 33.265625 C-15.91516248 35.0755698 -18.04292152 36.90037537 -20.1640625 38.734375 C-21.14117187 39.56453125 -22.11828125 40.3946875 -23.125 41.25 C-24.42824219 42.37148437 -24.42824219 42.37148437 -25.7578125 43.515625 C-26.86769531 44.25039062 -26.86769531 44.25039062 -28 45 C-28.99 44.67 -29.98 44.34 -31 44 C-31.94921875 41.27734375 -31.94921875 41.27734375 -32.6875 37.9375 C-32.93886719 36.83277344 -33.19023437 35.72804687 -33.44921875 34.58984375 C-33.63097656 33.73519531 -33.81273437 32.88054688 -34 32 C-28.1299403 26.61380639 -22.15239534 21.42166553 -15.953125 16.41796875 C-13.77154583 14.63172866 -11.62045581 12.82742591 -9.484375 10.98828125 C-8.59939331 10.22813721 -8.59939331 10.22813721 -7.6965332 9.45263672 C-6.54057458 8.45695605 -5.38795231 7.45738632 -4.23901367 6.45361328 C-0.2209269 3 -0.2209269 3 2 3 C2 2.34 2 1.68 2 1 C1.34 0.67 0.68 0.34 0 0 Z " fill="#60308E" transform="translate(203,21)"/>
<path d="M0 0 C2.00439674 2.5803402 3.72420238 5.1457922 5.26831055 8.02392578 C5.68851974 8.80639679 6.10872894 9.5888678 6.54167175 10.39505005 C8.44620927 14.00612871 10.32964104 17.62764862 12.19848633 21.25732422 C13.18208041 23.15161772 14.17991876 25.03859055 15.19262695 26.91748047 C22.02901104 39.61730531 25.65902451 49.50113122 24 64 C20.76209929 60.20017588 18.92420161 55.82713003 16.875 51.32421875 C16.48683105 50.4808345 16.09866211 49.63745026 15.69873047 48.76850891 C14.46134933 46.07686599 13.23070722 43.38219991 12 40.6875 C11.1722924 38.88587589 10.34417174 37.08444148 9.515625 35.28320312 C7.33184088 30.52744136 5.14990392 25.77118941 3 21 C2.69885788 20.34395279 2.39771576 19.68790558 2.08744812 19.01197815 C0.13197777 14.64918109 -0.32444572 11.35560011 -0.1875 6.5625 C-0.16042969 5.32628906 -0.13335937 4.09007812 -0.10546875 2.81640625 C-0.07066406 1.88699219 -0.03585937 0.95757812 0 0 Z " fill="#FCC638" transform="translate(464,265)"/>
<path d="M0 0 C0.33 0 0.66 0 1 0 C2.68590467 13.0842913 -2.03083157 22.24276425 -7.6875 33.6875 C-8.51487977 35.40830064 -9.33976676 37.13030214 -10.16210938 38.85351562 C-11.72881719 42.12914465 -13.30807453 45.39812976 -14.89990234 48.66162109 C-17.36577276 53.73056197 -19.71389035 58.8473317 -22 64 C-22.33 64 -22.66 64 -23 64 C-25.1564331 47.52203841 -19.16776098 36.14325555 -11.5 21.875 C-10.38857317 19.74263018 -9.28047246 17.60852328 -8.17578125 15.47265625 C-5.48850943 10.29446805 -2.76109203 5.13917084 0 0 Z " fill="#FCC738" transform="translate(39,267)"/>
<path d="M0 0 C2 3 2 3 3 9 C-14.16 9 -31.32 9 -49 9 C-42.53385099 1.24062119 -42.53385099 1.24062119 -39.09617615 0.70133972 C-38.3805098 0.67896744 -37.66484344 0.65659515 -36.92749023 0.63354492 C-36.11332138 0.60399216 -35.29915253 0.57443939 -34.46031189 0.54399109 C-33.14771141 0.51254753 -33.14771141 0.51254753 -31.80859375 0.48046875 C-30.9075441 0.45398758 -30.00649445 0.42750641 -29.07814026 0.40022278 C-27.17437554 0.34756403 -25.27046477 0.29997693 -23.36645508 0.25708008 C-20.44465133 0.18766989 -17.52449586 0.09177716 -14.60351562 -0.00585938 C-12.75524942 -0.05369794 -10.906942 -0.09997517 -9.05859375 -0.14453125 C-7.74295692 -0.19115654 -7.74295692 -0.19115654 -6.40074158 -0.23872375 C-3.94311523 -0.28051758 -3.94311523 -0.28051758 0 0 Z " fill="#60308E" transform="translate(253,199)"/>
<path d="M0 0 C0.33 0.99 0.66 1.98 1 3 C-2.65155058 5.8262001 -6.31269006 8.63942279 -9.97949219 11.44580078 C-12.1009496 13.07765166 -14.2104593 14.72427544 -16.3203125 16.37109375 C-17.75485478 17.47702126 -19.18974476 18.58249791 -20.625 19.6875 C-21.31142578 20.22858398 -21.99785156 20.76966797 -22.70507812 21.32714844 C-24.4117877 22.63142849 -26.20083485 23.82653982 -28 25 C-28.99 24.67 -29.98 24.34 -31 24 C-31 23.34 -31 22.68 -31 22 C-29.40938619 20.66069704 -27.74718878 19.40635537 -26.0625 18.1875 C-24.97171296 17.39191669 -23.8819309 16.59495431 -22.79296875 15.796875 C-22.19274902 15.35794922 -21.5925293 14.91902344 -20.97412109 14.46679688 C-18.78998086 12.84395313 -16.6376793 11.18419475 -14.48828125 9.515625 C-13.72443115 8.92370361 -12.96058105 8.33178223 -12.17358398 7.72192383 C-10.65111718 6.54001094 -9.13105892 5.35498844 -7.61352539 4.16674805 C-6.91348389 3.62574463 -6.21344238 3.08474121 -5.4921875 2.52734375 C-4.86683105 2.03999756 -4.24147461 1.55265137 -3.59716797 1.05053711 C-2 0 -2 0 0 0 Z " fill="#EFBC3A" transform="translate(117,101)"/>
<path d="M0 0 C2.27596926 2.13507593 4.21472896 4.441725 6 7 C6 7.33 6 7.66 6 8 C-1.59 8 -9.18 8 -17 8 C-5.17535545 -1.45971564 -5.17535545 -1.45971564 0 0 Z " fill="#591896" transform="translate(298,200)"/>
<path d="M0 0 C2.31 1.98 4.62 3.96 7 6 C9.74547874 7.37050596 9.74547874 7.37050596 12 8 C10.6118265 11.12857014 8.98898122 13.28189174 6.5625 15.6875 C5.96566406 16.28949219 5.36882812 16.89148438 4.75390625 17.51171875 C3 19 3 19 0 20 C0 13.4 0 6.8 0 0 Z " fill="#FAC539" transform="translate(405,113)"/>
<path d="M0 0 C3 -0.3125 3 -0.3125 6 0 C8 2 8 2 8.25 5 C8 8 8 8 6 10 C2.375 9.625 2.375 9.625 -1 9 C-1.625 6.1875 -1.625 6.1875 -2 3 C-1.34 2.01 -0.68 1.02 0 0 Z " fill="#F7C33A" transform="translate(82,170)"/>
<path d="M0 0 C3.625 0.375 3.625 0.375 7 1 C8.33157895 6.44736842 8.33157895 6.44736842 6.875 8.875 C4.40522151 10.3568671 2.83386167 10.3633156 0 10 C-2 8 -2 8 -2.25 5 C-2 2 -2 2 0 0 Z " fill="#F8C43A" transform="translate(131,149)"/>
<path d="M0 0 C2 0.6875 2 0.6875 4 2.6875 C3.44444444 7.24305556 3.44444444 7.24305556 2 8.6875 C-0.4375 8.875 -0.4375 8.875 -3 8.6875 C-3.66 8.0275 -4.32 7.3675 -5 6.6875 C-4.75 3.625 -4.75 3.625 -4 0.6875 C-2 -0.3125 -2 -0.3125 0 0 Z " fill="#8142B4" transform="translate(423,97.3125)"/>
<path d="M0 0 C2.5625 0.1875 2.5625 0.1875 4.5625 2.1875 C4.75 4.75 4.75 4.75 4.5625 7.1875 C3.5625 8.1875 3.5625 8.1875 0.5625 8.3125 C-2.4375 8.1875 -2.4375 8.1875 -3.4375 7.1875 C-3.5625 4.1875 -3.5625 4.1875 -3.4375 1.1875 C-2.4375 0.1875 -2.4375 0.1875 0 0 Z " fill="#8343B9" transform="translate(385.4375,51.8125)"/>
</svg>
