<?xml version="1.0" encoding="UTF-8"?>
<svg version="1.1" xmlns="http://www.w3.org/2000/svg" width="512" height="512">
<path d="M0 0 C1.25216903 -0.00297112 2.50433805 -0.00594224 3.79445159 -0.0090034 C7.25367886 -0.01702874 10.71288533 -0.01886045 14.17212081 -0.01960087 C17.90901346 -0.02145908 21.64589551 -0.0290099 25.38278198 -0.03573608 C33.54360639 -0.04928484 41.70442587 -0.05533779 49.86525965 -0.05974674 C54.96166621 -0.06251318 60.05807088 -0.06675109 65.15447617 -0.07125092 C79.26961968 -0.08343558 93.38476169 -0.09373874 107.49991035 -0.09712601 C108.40220906 -0.09734557 109.30450776 -0.09756514 110.23414885 -0.09779136 C111.13856538 -0.09800964 112.04298191 -0.09822791 112.974805 -0.09845281 C114.80741191 -0.09889627 116.64001882 -0.09934283 118.47262573 -0.09979248 C119.8361711 -0.10012463 119.8361711 -0.10012463 121.22726284 -0.10046348 C135.97287048 -0.1044157 150.71842883 -0.1218862 165.46401741 -0.145152 C180.60872781 -0.16885464 195.75341344 -0.18132724 210.8981427 -0.18249393 C219.39931736 -0.18341092 227.90042767 -0.18917016 236.40158463 -0.20731354 C243.63589632 -0.22269933 250.87012374 -0.22784374 258.10444869 -0.21957543 C261.79534679 -0.21566447 265.48607507 -0.21662041 269.17695236 -0.23063278 C273.17701068 -0.24568043 277.17668502 -0.23751922 281.17675781 -0.22705078 C282.92830207 -0.23913539 282.92830207 -0.23913539 284.71523106 -0.25146413 C294.69067294 -0.19019592 294.69067294 -0.19019592 299.46139526 3.14044189 C300.92180754 6.06126645 300.58068323 8.62345558 300.57492065 11.8850708 C300.57506668 12.57786636 300.57521271 13.27066193 300.57536316 13.98445129 C300.57466545 16.27866731 300.56687968 18.57280253 300.55905151 20.86700439 C300.55718683 22.45598303 300.55576316 24.04496224 300.55476379 25.63394165 C300.55094258 29.81953514 300.54111565 34.00509403 300.53005981 38.19067383 C300.51983721 42.46038342 300.51526435 46.7300986 300.51022339 50.99981689 C300.49949304 59.38004112 300.48242135 67.76023721 300.46139526 76.14044189 C301.87618164 76.11325073 301.87618164 76.11325073 303.31954956 76.08551025 C305.18993896 76.06436157 305.18993896 76.06436157 307.09811401 76.04278564 C308.33005493 76.0246582 309.56199585 76.00653076 310.83126831 75.987854 C321.2851094 76.42726827 329.43545937 81.78607851 336.43405151 89.24200439 C343.8833548 98.19382108 346.61140368 107.67490918 346.60856628 119.17108154 C346.61224297 119.97472468 346.61591966 120.77836782 346.61970776 121.60636377 C346.63071244 124.29676613 346.63458301 126.98712981 346.63839722 129.67755127 C346.64466442 131.60791139 346.65131145 133.53827032 346.65830994 135.46862793 C346.67932654 141.80714075 346.68971179 148.14565373 346.69967651 154.48419189 C346.70372531 156.66968295 346.70784227 158.85517388 346.7120266 161.04066467 C346.73107495 171.31199838 346.74530534 181.58332493 346.75363857 191.85467291 C346.7634025 203.69274337 346.78970158 215.53062643 346.83013946 227.36863089 C346.86035416 236.52979483 346.87511262 245.69090523 346.87841958 254.85211802 C346.88076441 260.31815824 346.88965076 265.78399818 346.91488075 271.24998474 C346.93825948 276.39809464 346.94235541 281.54587379 346.93211937 286.69402313 C346.93162624 288.57527012 346.93788039 290.45653393 346.95167542 292.33773041 C347.05792366 307.69585697 345.68264914 321.32298626 334.64889526 333.07012939 C327.30099766 339.97359771 318.82227449 344.25696371 308.70564175 344.27466297 C307.52359014 344.27912082 306.34153853 344.28357866 305.12366718 344.28817159 C303.82379039 344.28798723 302.5239136 344.28780286 301.18464661 344.28761292 C299.79072564 344.29091271 298.39680563 344.29463852 297.00288683 344.29875439 C293.168026 344.30876949 289.33318083 344.3124904 285.49830878 344.3151437 C281.36383565 344.31904825 277.22937489 344.32862652 273.09490967 344.33735657 C263.10756303 344.35711736 253.12021538 344.36718697 243.13285407 344.37608436 C238.42873862 344.38046813 233.72462429 344.38583473 229.02050972 344.39107323 C213.38116534 344.40808558 197.74182166 344.42257932 182.10246944 344.42982197 C178.04413286 344.43173184 173.98579628 344.43365218 169.92745972 344.43560791 C168.91878873 344.43609165 167.91011774 344.43657539 166.87088097 344.43707379 C150.53438579 344.44537248 134.19796387 344.47070665 117.86150067 344.50318859 C101.08628536 344.53627073 84.31110727 344.5542718 67.53585917 344.55746621 C58.11838746 344.5596303 48.70102258 344.56836411 39.28358269 344.59392738 C31.26245236 344.6156502 23.2414548 344.62367704 15.2202984 344.6139606 C11.12979081 344.6094204 7.03955706 344.61128564 2.94908714 344.63072205 C-0.80105839 344.64838695 -4.550731 344.64732945 -8.3008818 344.63182475 C-10.28883357 344.62833671 -12.27679049 344.64445016 -14.26467282 344.66142923 C-27.47855572 344.56696421 -36.89522091 340.68145898 -46.28860474 331.41387939 C-54.89154935 321.99365504 -56.84526932 311.40547174 -56.79930115 299.00218201 C-56.80312669 297.90054869 -56.80695224 296.79891538 -56.81089371 295.66389924 C-56.82118875 291.98309824 -56.81723814 288.30245425 -56.81326294 284.62164307 C-56.81761137 281.97824082 -56.82273075 279.33484997 -56.82875061 276.69145203 C-56.84147902 270.26256406 -56.84329359 263.8337179 -56.84095035 257.40481945 C-56.83916478 252.17674353 -56.84092195 246.94868026 -56.84517479 241.72060585 C-56.84576998 240.97551819 -56.84636517 240.23043052 -56.84697839 239.46276445 C-56.84819019 237.94892976 -56.84940433 236.43509508 -56.85062077 234.92126039 C-56.86148936 220.73427117 -56.85933717 206.54730574 -56.85323592 192.36031518 C-56.84806862 179.39637291 -56.85931849 166.43250582 -56.87833414 153.46857842 C-56.8977311 140.14202869 -56.90596521 126.81551449 -56.90221089 113.48895055 C-56.9003015 106.01322506 -56.90276067 98.53756353 -56.91692543 91.06184959 C-56.92886398 84.69686839 -56.93021657 78.33199052 -56.91813526 71.96700784 C-56.91226354 68.72306013 -56.91274004 65.47933928 -56.92313766 62.23539734 C-56.93362047 58.70997555 -56.92549147 55.18505672 -56.91282654 51.65965271 C-56.92020082 50.64659488 -56.92757511 49.63353706 -56.93517286 48.58978051 C-56.83017971 34.64004993 -52.46134781 23.57804953 -42.95657349 13.46856689 C-30.67949129 1.64766061 -16.31047912 -0.01214952 0 0 Z " fill="#25A1E8" transform="translate(79.53860473632813,135.85955810546875)"/>
<path d="M0 0 C4.95 2.64 9.9 5.28 15 8 C22.13333605 9.80877024 22.13333605 9.80877024 29.08174038 10.25053978 C30.23467223 10.25553848 31.38760407 10.26053717 32.57547325 10.26568735 C33.82226248 10.26102413 35.06905171 10.25636092 36.35362244 10.2515564 C37.7070488 10.2536973 39.06047399 10.25672445 40.41389662 10.26055682 C44.11819643 10.26856991 47.82239479 10.26430294 51.52669418 10.25803804 C55.52745242 10.25349395 59.52819166 10.2605498 63.52894592 10.26634216 C70.45764289 10.27496561 77.38631433 10.2767856 84.31501579 10.27439499 C94.34249668 10.27129452 104.36992123 10.28294599 114.39738793 10.29894479 C130.68020345 10.32489459 146.96301901 10.34491997 163.24584961 10.35839844 C164.70690487 10.35961399 164.70690487 10.35961399 166.19747639 10.3608541 C180.02267472 10.37207753 193.84786901 10.37735739 207.67307127 10.38024123 C209.13367174 10.38054721 209.13367174 10.38054721 210.6237793 10.38085938 C211.59632343 10.38105931 212.56886756 10.38125925 213.57088273 10.38146524 C229.79253807 10.38519904 246.01413223 10.40428907 262.23575693 10.43595374 C272.2368474 10.45485969 282.23778093 10.46083516 292.23888434 10.45013656 C299.09206352 10.44381441 305.94513019 10.45186656 312.7982847 10.47119068 C316.75084207 10.48186548 320.70312614 10.48603636 324.65568161 10.47271919 C328.27729629 10.46063962 331.89839931 10.46706488 335.51996977 10.48791118 C337.44357677 10.49422737 339.36721768 10.48092874 341.29078335 10.46682584 C349.79935801 10.54203591 355.55736432 12.27383719 362.75 16.6875 C368.39052078 22.48470191 371.12240724 29.20312904 371.12939453 37.21166992 C371.13254669 38.24921921 371.13569885 39.28676849 371.13894653 40.35575867 C371.13591019 42.02624016 371.13591019 42.02624016 371.1328125 43.73046875 C371.13424759 45.44971306 371.13424759 45.44971306 371.13571167 47.20368958 C371.13639178 49.62366796 371.13454928 52.04364818 371.13037109 54.46362305 C371.12500581 58.1834722 371.13032937 61.90320141 371.13671875 65.62304688 C371.13605823 67.97135443 371.1347776 70.31966192 371.1328125 72.66796875 C371.13483673 73.78769577 371.13686096 74.90742279 371.13894653 76.06108093 C371.13579437 77.08917374 371.13264221 78.11726654 371.12939453 79.17651367 C371.12820114 80.54074715 371.12820114 80.54074715 371.12698364 81.93254089 C371 84 371 84 370 85 C367.86021627 85.09770462 365.71720837 85.12516312 363.57519531 85.12597656 C362.90342758 85.1278447 362.23165985 85.12971283 361.53953552 85.13163757 C360.07393021 85.13565253 358.60831859 85.13771741 357.14270782 85.13809967 C354.01166996 85.14151579 350.88083957 85.16289578 347.74987411 85.18333054 C341.91997603 85.22127238 336.09028945 85.25263446 330.26025391 85.25048828 C326.20631785 85.24969398 322.15312862 85.27337965 318.09938812 85.3123703 C316.56390505 85.32273599 315.02833472 85.32442492 313.492836 85.31671906 C299.55735897 85.25385325 287.30635222 87.97601359 277 98 C267.68540076 107.9442143 264.58631688 118.82689334 264.7265625 132.234375 C265.58623846 144.07334111 270.57739699 154.12290277 279.1875 162.25 C287.19862708 168.64069456 295.9298001 172.08130874 306.06347656 172.20532227 C306.76631775 172.21522186 307.46915894 172.22512146 308.19329834 172.23532104 C310.50904 172.26682784 312.82480215 172.29165049 315.140625 172.31640625 C316.74917118 172.33698513 318.35771206 172.35798185 319.96624756 172.37937927 C324.1944957 172.43450348 328.42279186 172.48395521 332.65112305 172.53222656 C336.96797954 172.58251216 341.28476652 172.63816135 345.6015625 172.69335938 C354.06764951 172.80082286 362.53379478 172.90229392 371 173 C371.10193078 180.36478777 371.17168759 187.72939168 371.21972656 195.09472656 C371.23976603 197.59707436 371.26700522 200.09937578 371.30175781 202.6015625 C371.3506124 206.21105437 371.37304645 209.81992379 371.390625 213.4296875 C371.42159271 215.09123367 371.42159271 215.09123367 371.45318604 216.78634644 C371.45558384 225.20175538 369.73921945 231.7998635 365.125 238.875 C357.74446591 246.25553409 350.43445175 247.22151281 340.47042662 247.276811 C339.20836958 247.2737138 337.94631254 247.2706166 336.64601135 247.26742554 C335.28036004 247.27116492 333.91471086 247.27576759 332.54906505 247.28115618 C328.80637979 247.29336563 325.06378405 247.29312816 321.32108343 247.29076743 C317.28078361 247.29035875 313.24051231 247.30140313 309.20022583 247.31088257 C301.2889679 247.3274813 293.37773978 247.33299157 285.4664659 247.33410732 C279.03601403 247.33505815 272.60557198 247.33917018 266.17512321 247.34550858 C247.94027867 247.36311644 229.70545765 247.37234794 211.47060455 247.37084763 C209.99665066 247.37072776 209.99665066 247.37072776 208.49291992 247.37060547 C207.50908343 247.37052371 206.52524693 247.37044195 205.51159721 247.37035771 C189.56125217 247.36954451 173.6110015 247.38869177 157.66068376 247.4168822 C141.27975703 247.44560515 124.89887633 247.45942288 108.51792377 247.45769465 C99.32248665 247.45703064 90.12714852 247.46252815 80.93173409 247.48405075 C73.10418468 247.50225459 65.27677915 247.50661631 57.44921774 247.4930319 C53.45627686 247.48649874 49.46361208 247.48639753 45.4706974 247.5037384 C41.81333647 247.51945862 38.15647079 247.51661673 34.49912202 247.49917014 C32.55383884 247.49464579 30.60854037 247.50976568 28.66331679 247.52564943 C19.53665891 247.45357133 12.66463356 245.66463356 6 239 C1.66611195 232.46847466 -0.13095505 227.06072747 -0.11352539 219.19995117 C-0.11344986 218.05914597 -0.11337433 216.91834076 -0.11329651 215.7429657 C-0.10813522 214.52196671 -0.10297394 213.30096771 -0.09765625 212.04296875 C-0.0962413 210.78486893 -0.09482635 209.5267691 -0.09336853 208.23054504 C-0.08872573 204.89821471 -0.07975228 201.56595368 -0.06866455 198.23364258 C-0.05840503 194.82829383 -0.05386121 191.4229379 -0.04882812 188.01757812 C-0.0378083 181.34503302 -0.021077 174.67252051 0 168 C10.48236518 167.36670207 20.96001191 166.89104854 31.45779133 166.60107136 C36.33700615 166.4616571 41.20291918 166.27388581 46.07446289 165.96313477 C81.27320113 163.77649476 81.27320113 163.77649476 94.82137966 175.58917141 C96.72639566 177.37797265 98.55240931 179.21416305 100.35546875 181.10546875 C100.93601831 181.71395472 101.51656788 182.32244068 102.11470985 182.94936562 C103.74265284 184.71581131 105.29690977 186.51859512 106.82495117 188.37182617 C107.51800763 189.18795285 107.51800763 189.18795285 108.22506523 190.02056694 C109.94122836 192.30477335 111.07413773 194.1526638 110.81984901 197.05898476 C110.28437805 199.17597961 110.28437805 199.17597961 109.62090015 201.11070728 C107.53282262 207.46436923 109.31206523 213.38798074 111.671875 219.37890625 C114.42950315 224.82116652 118.95114221 229.43652811 124.78515625 231.56640625 C132.63201622 233.10256402 141.07819462 233.23784003 148 229 C153.29358684 225.36914236 157.35114606 221.33198939 159 215 C159.87515833 206.76268502 160.19565061 198.82565864 155 192 C150.60277281 186.77086496 144.959999 182.6959999 138 182 C133.81938094 181.75881044 130.63662648 182.1055594 126.70825195 183.39160156 C124.00124648 184.00323344 122.62373877 184.30853742 120.11190796 183.06604004 C118.22058074 181.4617622 116.57836017 179.76421936 114.91796875 177.921875 C114.29650467 177.28010315 113.67504059 176.6383313 113.03474426 175.97711182 C111.058086 173.92580603 109.12268106 171.84040948 107.1875 169.75 C105.22716186 167.68215711 103.25910374 165.62206579 101.28669739 163.56573486 C100.06361798 162.28530098 98.84894075 160.99677514 97.6438446 159.69940186 C96.81696892 158.81904266 96.81696892 158.81904266 95.97338867 157.92089844 C95.49423508 157.40412537 95.01508148 156.88735229 94.52140808 156.35491943 C90.23455874 152.53718273 85.90491497 152.6957562 80.37597656 152.68115234 C79.50732468 152.67110672 78.63867279 152.6610611 77.74369812 152.65071106 C74.87601373 152.61985057 72.00842283 152.60283592 69.140625 152.5859375 C67.15093174 152.56722816 65.16124644 152.54765493 63.17156982 152.5272522 C57.9372018 152.47590028 52.70280805 152.43629087 47.46832275 152.39910889 C42.12595233 152.35908847 36.78368924 152.30798717 31.44140625 152.2578125 C20.96101286 152.16101695 10.48055892 152.07662371 0 152 C0 147.38 0 142.76 0 138 C17.48076565 137.79151858 34.96103367 137.63097961 52.44275761 137.53369045 C60.56016972 137.48731322 68.67679449 137.42410538 76.79370117 137.32104492 C83.86978338 137.23124277 90.94529537 137.17325388 98.02193159 137.15320355 C101.76815264 137.14148506 105.51274269 137.11401975 109.25844002 137.04842949 C113.44393863 136.97573477 117.62661613 136.97409652 121.81274414 136.97827148 C123.04992691 136.945914 124.28710968 136.91355652 125.56178284 136.88021851 C133.84234195 136.96965012 133.84234195 136.96965012 137.20739555 139.96464729 C139.03904724 142.37245178 139.03904724 142.37245178 140.48680782 144.76809788 C143.29707503 148.91313738 147.2881802 150.66017641 152 152 C159.90280384 153.09786368 166.89476507 152.67376305 173.875 148.62109375 C179.01812203 144.69757235 182.77165945 139.38737084 184 133 C184.89917285 124.52560379 183.96146571 118.04653738 179 111 C174.10920185 105.25968356 168.12001199 102.71751033 160.7421875 101.68359375 C153.22758073 101.27775262 147.1140013 104.17696491 141.1875 108.625 C137.05482307 112.58665346 137.05482307 112.58665346 134 122 C89.78 122 45.56 122 0 122 C0 116.72 0 111.44 0 106 C1.10167511 105.99635437 2.20335022 105.99270874 3.33840942 105.98895264 C13.72631489 105.95199355 24.11392417 105.89421073 34.50160408 105.81609726 C39.84190211 105.7766069 45.18203486 105.74442597 50.52246094 105.72900391 C55.67737215 105.71384774 60.83182901 105.67942031 65.98653793 105.63169098 C67.95204593 105.61686652 69.9176188 105.60895838 71.88318253 105.60811615 C74.63892164 105.60574797 77.39340364 105.57868041 80.14892578 105.54589844 C80.95956985 105.5509288 81.77021393 105.55595917 82.60542297 105.56114197 C88.70430131 105.44906737 92.10607657 103.59778502 96.69271851 99.48049927 C97.1349173 99.0036972 97.57711609 98.52689514 98.03271484 98.03564453 C98.54700043 97.48893097 99.06128601 96.94221741 99.59115601 96.37893677 C100.1256839 95.80271576 100.66021179 95.22649475 101.2109375 94.6328125 C102.38419817 93.4050844 103.55871536 92.17855607 104.734375 90.953125 C106.56581037 89.0349478 108.38821896 87.11072864 110.19042969 85.16503906 C111.94537171 83.27693071 113.73050418 81.42228539 115.5234375 79.5703125 C116.05391693 78.98194611 116.58439636 78.39357971 117.13095093 77.78738403 C118.70849609 76.18798828 118.70849609 76.18798828 122 74 C124.24330037 74.10041637 125.99809469 74.56747489 128.1053772 75.33004761 C134.61495931 77.63188315 140.42254097 75.43542568 146.58203125 73.16796875 C148.94791962 72.02515676 150.21292003 70.87294567 152 69 C152.66 69 153.32 69 154 69 C154.68774405 67.67741528 155.34711373 66.34013497 156 65 C156.804375 63.6078125 156.804375 63.6078125 157.625 62.1875 C160.37470605 55.67281182 160.05585453 47.25662109 158.37890625 40.49609375 C155.73554064 34.49271675 150.4866846 29.77892071 144.703125 26.828125 C137.94691641 24.75830387 128.70969492 24.640192 122.3125 27.875 C121.219375 28.57625 120.12625 29.2775 119 30 C118.29359375 30.33773437 117.5871875 30.67546875 116.859375 31.0234375 C114.40820853 32.31081485 114.05685191 33.46355542 113 36 C112.484375 36.969375 111.96875 37.93875 111.4375 38.9375 C109.05521353 44.01280595 108.72071249 48.41424987 109 54 C109.41086601 54.91292061 109.41086601 54.91292061 109.83003235 55.84428406 C110.9318614 58.46922448 111.21262746 60.13939339 111 63 C108.24000843 68.36413755 104.51819186 72.62461273 100.35546875 76.95703125 C99.47457612 77.87729064 99.47457612 77.87729064 98.57588768 78.81614113 C87.86919385 89.55732154 77.96040349 92.57521835 62.98828125 92.63671875 C55.40371025 92.64156357 47.89276583 92.13761563 40.3125 91.6875 C27.009375 91.130625 13.70625 90.57375 0 90 C0 60.3 0 30.6 0 0 Z " fill="#C6E7FB" transform="translate(39,217)"/>
<path d="M0 0 C1.24092264 -0.0034177 2.48184527 -0.0068354 3.76037163 -0.01035666 C7.18365869 -0.01578416 10.60602031 -0.00336896 14.02919495 0.01675558 C17.72845694 0.03409469 21.42769242 0.02817933 25.12698364 0.02514648 C31.52917756 0.02305319 37.9312079 0.03556006 44.33336067 0.05809784 C53.58967107 0.09066195 62.84590269 0.10102936 72.10226416 0.10604981 C87.12151984 0.11479555 102.14068843 0.14139154 117.15989685 0.17926025 C131.74615545 0.21599902 146.33239036 0.24430164 160.91868591 0.2612915 C161.81839407 0.2623424 162.71810222 0.26339329 163.64507426 0.26447603 C168.15882792 0.26969633 172.67258174 0.27475113 177.18633568 0.27972364 C214.60850831 0.32116325 252.03051977 0.39488896 289.45262146 0.48101807 C289.45262146 19.95101807 289.45262146 39.42101807 289.45262146 59.48101807 C251.18384995 59.61336316 212.91529476 59.72412008 174.64635979 59.78741004 C170.12539973 59.79491402 165.60444016 59.80267998 161.08348083 59.81060791 C160.1834629 59.81218177 159.28344496 59.81375564 158.35615376 59.81537719 C143.79510076 59.84146446 129.23419031 59.88876051 114.6732218 59.94393484 C99.72536871 60.00010154 84.77759014 60.03338292 69.82963586 60.04554904 C60.61051353 60.05376988 51.39179417 60.07970693 42.17279592 60.12851687 C35.84560648 60.1603038 29.51862448 60.16980262 23.19136104 60.16202633 C19.54411836 60.1581942 15.89757837 60.16394686 12.25046158 60.19625092 C8.28697321 60.23109883 4.32438787 60.21888609 0.36076355 60.20254517 C-0.77934874 60.22002221 -1.91946103 60.23749926 -3.09412217 60.25550592 C-11.98112812 60.15682675 -19.74197634 57.65235743 -26.55310845 51.73994005 C-28.12927837 50.0823896 -29.33366085 48.41814365 -30.54737854 46.48101807 C-30.95730042 45.85968994 -31.36722229 45.23836182 -31.78956604 44.59820557 C-36.02056451 36.92404972 -36.04168836 26.78340775 -33.69972229 18.47320557 C-29.92278198 10.09992095 -23.51014145 4.95369008 -15.23499691 1.34848452 C-10.23295026 -0.26599606 -5.211348 -0.05285223 0 0 Z " fill="#F2F3F4" transform="translate(74.54737854003906,152.51898193359375)"/>
<path d="M0 0 C1.97641983 -0.00461494 1.97641983 -0.00461494 3.99276733 -0.00932312 C5.41135842 -0.00242846 6.82994774 0.00483827 8.24853516 0.01245117 C9.71587076 0.01364461 11.18320714 0.01409579 12.65054321 0.01383972 C15.71173954 0.01539745 18.77281774 0.02363717 21.83398438 0.03710938 C25.76507386 0.05418862 29.69603495 0.05792077 33.62715721 0.05716419 C36.6502099 0.05743536 39.67323431 0.0629064 42.69627762 0.07016563 C44.14681408 0.07335386 45.59735375 0.07532007 47.04789352 0.07605934 C49.06579487 0.07821615 51.08368435 0.08774344 53.1015625 0.09765625 C54.8252858 0.10337395 54.8252858 0.10337395 56.58383179 0.10920715 C59.16259766 0.24291992 59.16259766 0.24291992 60.16259766 1.24291992 C60.26147558 2.98674528 60.29058798 4.73457536 60.29199219 6.48120117 C60.29514435 7.59906006 60.29829651 8.71691895 60.30154419 9.86865234 C60.29850784 11.69360229 60.29850784 11.69360229 60.29541016 13.55541992 C60.29636688 14.79461182 60.29732361 16.03380371 60.29830933 17.31054688 C60.2989914 19.93680273 60.29763303 22.56296626 60.29296875 25.18920898 C60.28727146 28.56220706 60.29055068 31.93512557 60.29654121 35.30812073 C60.30101536 38.51555669 60.29788648 41.72298293 60.29541016 44.93041992 C60.29743439 46.14705322 60.29945862 47.36368652 60.30154419 48.6171875 C60.29681595 50.29397583 60.29681595 50.29397583 60.29199219 52.00463867 C60.29119659 52.99423584 60.290401 53.98383301 60.2895813 55.00341797 C60.16259766 57.24291992 60.16259766 57.24291992 59.16259766 58.24291992 C57.15512059 58.35282248 55.14374813 58.39204404 53.13330078 58.40405273 C51.84105591 58.41366028 50.54881104 58.42326782 49.21740723 58.4331665 C47.79288916 58.43801713 46.36836905 58.44229531 44.94384766 58.44604492 C43.48710122 58.45179741 42.0303548 58.45755513 40.5736084 58.46331787 C37.51016893 58.47384413 34.4467558 58.47967456 31.38330078 58.4831543 C27.47736656 58.48860951 23.57178618 58.51256598 19.66596222 58.54112625 C16.65115387 58.55986025 13.63642838 58.56496415 10.62156677 58.56649017 C9.18320301 58.56949854 7.74484006 58.57746505 6.30653381 58.59067535 C-5.22251262 58.68891057 -13.76889381 57.72054057 -22.82177734 50.28198242 C-29.41793784 43.60912239 -31.12709073 36.13124349 -31.15649414 27.01074219 C-31.0528993 21.46541077 -30.08365487 17.6918824 -26.83740234 13.24291992 C-26.09490234 12.19104492 -25.35240234 11.13916992 -24.58740234 10.05541992 C-17.66904081 2.9798229 -9.93860566 -0.01227352 0 0 Z " fill="#F1F3F4" transform="translate(349.83740234375,316.757080078125)"/>
<path d="M0 0 C0.90421346 -0.00905664 1.80842691 -0.01811328 2.74004078 -0.02744436 C3.72952559 -0.02211644 4.71901041 -0.01678851 5.73847961 -0.01129913 C6.79263156 -0.01739024 7.8467835 -0.02348134 8.93287945 -0.02975702 C12.47666781 -0.04644941 16.02009932 -0.04160224 19.56391907 -0.03681183 C22.09986242 -0.04414845 24.63580242 -0.05273348 27.17173767 -0.06247711 C33.35153023 -0.08242875 39.53119075 -0.08807149 45.71101117 -0.08628923 C50.73282337 -0.08498224 55.75460628 -0.08878249 60.77641296 -0.09621429 C62.22223377 -0.09831345 63.66805458 -0.10041105 65.11387539 -0.10250711 C65.83346491 -0.10355064 66.55305443 -0.10459417 67.29444969 -0.10566932 C80.90608408 -0.12457489 94.51766459 -0.12352032 108.12930667 -0.11669999 C120.58743111 -0.11112236 133.04535004 -0.13195865 145.50342643 -0.16506046 C158.29081045 -0.19877404 171.07809594 -0.21396885 183.86552525 -0.20934343 C191.04659049 -0.20709661 198.22746571 -0.21237291 205.40849304 -0.23723602 C212.15877482 -0.26040856 218.90855762 -0.25769509 225.6588707 -0.2373085 C228.14053553 -0.23388377 230.6222288 -0.23904991 233.10385513 -0.25329208 C236.48338483 -0.27135371 239.86143773 -0.2588317 243.24092102 -0.23834991 C244.23040584 -0.25086776 245.21989065 -0.26338561 246.23935986 -0.27628279 C252.83404937 -0.19018305 252.83404937 -0.19018305 256.13415527 2.69538879 C257.98480862 6.36479125 257.57573353 8.47339046 256.48970032 12.38311005 C254.91007132 14.45760458 254.05384748 15.27750439 251.46855462 15.76145887 C250.29871476 15.76381568 250.29871476 15.76381568 249.10524178 15.76622009 C248.20363607 15.77527673 247.30203036 15.78433337 246.37310326 15.79366446 C244.88552996 15.78567257 244.88552996 15.78567257 243.36790466 15.77751923 C242.31531271 15.78361033 241.26272075 15.78970143 240.17823207 15.79597712 C236.63367196 15.812692 233.08946774 15.80781913 229.5448761 15.80303192 C227.01070276 15.81036734 224.47653277 15.81895201 221.94236755 15.8286972 C215.76277079 15.84866143 209.58330608 15.85429069 203.40368141 15.85250932 C198.38137715 15.85120279 193.35910219 15.85500024 188.33680344 15.86243439 C186.89129699 15.86453354 185.44579053 15.86663114 184.00028408 15.86872721 C183.28085753 15.86977073 182.56143099 15.87081426 181.82020365 15.87188941 C168.20663581 15.89080163 154.59312183 15.88973869 140.97954629 15.88292009 C128.52203378 15.87734486 116.06472695 15.8981673 103.60726251 15.93128055 C90.82103533 15.96500429 78.03490671 15.98018748 65.24863422 15.97556353 C58.06808111 15.97331736 50.88771807 15.97858312 43.70720291 16.00345612 C36.95528984 16.02664488 30.20387546 16.02390263 23.451931 16.00352859 C20.97068705 16.00010627 18.48941461 16.00525979 16.00820923 16.01951218 C12.62678798 16.03759846 9.24683866 16.02503298 5.86546326 16.00457001 C4.87820916 16.01708786 3.89095507 16.0296057 2.87378418 16.04250288 C-1.73116526 15.98255392 -3.85269136 15.86666406 -7.65487862 13.0708313 C-9.51029968 10.38311005 -9.51029968 10.38311005 -9.57279968 6.75811005 C-7.9560399 1.62252014 -5.29355894 0.01066238 0 0 Z " fill="#25A1E8" transform="translate(77.51029968261719,174.61688995361328)"/>
<path d="M0 0 C10.39900633 5.36905218 19.06778618 12.09059087 27.5625 20.125 C28.27535156 20.785 28.98820312 21.445 29.72265625 22.125 C47.97845795 39.57177774 57.41785375 64.74908134 59.3125 89.5 C59.39806152 90.51791626 59.39806152 90.51791626 59.48535156 91.55639648 C59.74011777 95.59704878 59.4920214 98.54066872 57.5625 102.125 C54.50236449 104.74797329 52.99924387 105.13253007 48.9375 105.0625 C45.1176928 104.00144244 44.52770423 103.4229785 42.5625 100.125 C42.04174805 97.84521484 42.04174805 97.84521484 41.82421875 95.3359375 C41.72971436 94.40297852 41.63520996 93.47001953 41.5378418 92.50878906 C41.442854 91.51588867 41.34786621 90.52298828 41.25 89.5 C38.46511901 64.97451997 28.27538838 43.73582756 9.48046875 27.40625 C-6.57832808 14.85158153 -24.71959469 8.035038 -45.00390625 7.0715332 C-49.21409509 6.7782222 -51.02079542 6.4480268 -54.4609375 3.78125 C-57.04816792 0.30433956 -57.05470493 -1.63171613 -56.4375 -5.875 C-48.34015469 -20.52733914 -11.66543186 -5.7980963 0 0 Z " fill="#24A1E8" transform="translate(430.4375,43.875)"/>
<path d="M0 0 C17.31407572 8.90089808 30.99147481 22.70858266 37.8671875 41.0703125 C40.19781262 48.48136505 41.67279795 55.23370063 41.765625 63.0234375 C41.79140625 64.32410156 41.8171875 65.62476563 41.84375 66.96484375 C41.50205427 70.60553037 41.17100827 72.00380683 38.515625 74.4609375 C35.86618527 75.5251476 33.35286222 75.70428728 30.515625 75.4609375 C27.03430867 73.38696182 25.80076218 72.31634904 24.515625 68.4609375 C24.2270807 66.12972809 23.95911466 63.79594594 23.703125 61.4609375 C21.72554436 45.58875313 14.85635288 32.741918 2.515625 22.4609375 C-7.40907949 15.90428293 -17.07614996 13.04550499 -28.76953125 11.8203125 C-32.89982536 11.28014644 -34.91179262 10.99575755 -38.03125 8.08203125 C-39.96554888 4.59301365 -40.0559958 2.39083049 -39.484375 -1.5390625 C-31.2973979 -12.26682559 -10.15419163 -4.48514742 0 0 Z " fill="#24A1E8" transform="translate(413.484375,73.5390625)"/>
<path d="M0 0 C9.90099744 6.14329605 16.13721245 14.82391277 19.58984375 25.890625 C20.11948671 28.61450309 20.20838798 31.22586509 20.25 34 C20.27578125 35.03125 20.3015625 36.0625 20.328125 37.125 C19.95461224 40.39768322 19.34150814 41.71146715 17 44 C15.1328125 44.75 15.1328125 44.75 13.125 45 C12.13886719 45.1546875 12.13886719 45.1546875 11.1328125 45.3125 C7.79669673 44.82369183 6.31461308 43.40348804 4 41 C2.99609375 37.7578125 2.99609375 37.7578125 2.4375 34.125 C1.03745093 26.61918136 -1.10538454 21.913558 -7.23828125 17.09375 C-11.8262669 14.24533319 -17.15328158 13.17595466 -22.375 12.0625 C-26 11 -26 11 -28 9.3125 C-29.43643841 5.99073617 -29.44721011 3.5776809 -29 0 C-22.15089664 -8.97468716 -8.60114616 -4.20500479 0 0 Z " fill="#24A1E8" transform="translate(403,104)"/>
<path d="M0 0 C3.54281383 2.61860153 4.78669043 4.25341652 6 8.5 C6 12.48112565 5.5290797 13.96510436 3 17 C0.3017982 19.11480682 -1.55721934 19.92463308 -4.9375 20.5 C-9.25011712 19.79589925 -10.88856971 18.03907145 -14 15 C-15.57455739 11.85088521 -15.34799118 9.47991184 -15 6 C-11.26715512 -0.48563783 -7.11827999 -1.71820551 0 0 Z " fill="#F0F3F4" transform="translate(178,258)"/>
<path d="M0 0 C3.19886977 1.89562653 5.36160051 3.34627367 6.734375 6.90234375 C7.49424672 10.86127541 7.15324099 12.69351801 5.3125 16.375 C1.8935796 20.25593668 1.8935796 20.25593668 -1 21 C-4.85030645 20.85998886 -7.45637547 20.28363019 -10.875 18.5 C-13.49909634 15.41282783 -14.02049372 13.24886676 -14.27734375 9.2578125 C-13.79386147 5.32185816 -11.85725154 3.65790841 -9 1 C-5.85088521 -0.57455739 -3.47991184 -0.34799118 0 0 Z " fill="#F1F3F4" transform="translate(177,414)"/>
<path d="M0 0 C2.8100346 1.79363911 4.50940468 3.01880935 6 6 C6.65271451 10.74616694 6.69934049 13.98277746 3.9375 18 C0.42070506 20.39441358 -1.75226664 21 -6 21 C-9.64732163 19.42502021 -12.17551854 17.55293758 -14 14 C-14.53198011 9.212179 -14.72509014 7.13597455 -12.125 3.0625 C-8.49059499 -0.46501074 -4.90782663 -0.7051475 0 0 Z " fill="#F0F3F4" transform="translate(202,334)"/>
</svg>
